<svg id="Layer_2" data-name="Layer 2" xmlns="http://www.w3.org/2000/svg" viewBox="0 0 170.95 246.49"><g id="back"><g id="base"><path d="M2.22,237.4a6.89,6.89,0,0,0,6.87,6.87H161.88a6.88,6.88,0,0,0,6.85-6.87V9.09a6.88,6.88,0,0,0-6.85-6.87H9.09A6.89,6.89,0,0,0,2.22,9.09Z" fill="#fff" stroke="#010101" stroke-width="2.5"/></g><path d="M12.35,8.78H158.69a3.37,3.37,0,0,1,3.17,3.54V234.38a3.37,3.37,0,0,1-3.17,3.54H12.35a3.38,3.38,0,0,1-3.18-3.54V12.32A3.37,3.37,0,0,1,12.35,8.78Z" fill="#f0516e" fill-rule="evenodd"/><path d="M18.46,14.51H152.58a3.38,3.38,0,0,1,3.18,3.54v210.6a3.38,3.38,0,0,1-3.18,3.55H18.46a3.38,3.38,0,0,1-3.17-3.55V18.05A3.37,3.37,0,0,1,18.46,14.51Z" fill="#f0516e" stroke="#fff" stroke-linejoin="round" stroke-width="1.31" fill-rule="evenodd"/><rect x="26.08" y="25.12" width="118.89" height="196.46" fill="#f0516e" stroke="#fff" stroke-linejoin="round" stroke-width="1.25"/><rect x="30.83" y="30.03" width="109.38" height="186.64" fill="#f0516e" stroke="#fff" stroke-linejoin="round" stroke-width="1.34"/><g id="back_c1" data-name="back c1"><g id="back_c2" data-name="back c2"><path id="squa_circ" data-name="squa circ" d="M39.61,57.65a2.22,2.22,0,1,0,2.2,2.22A2.21,2.21,0,0,0,39.61,57.65Zm0,1.14,1.1,1.1-1,1.06-1.11-1.11Z" fill="#fff" fill-rule="evenodd"/><path id="squa_circ-2" data-name="squa circ" d="M46.7,57.65a2.22,2.22,0,1,0,2.2,2.22A2.21,2.21,0,0,0,46.7,57.65Zm0,1.14,1.1,1.1L46.72,61l-1.11-1.11Z" fill="#fff" fill-rule="evenodd"/><path id="squa_circ-3" data-name="squa circ" d="M53.78,57.65A2.22,2.22,0,1,0,56,59.87,2.21,2.21,0,0,0,53.78,57.65Zm0,1.14,1.11,1.1L53.8,61l-1.1-1.11Z" fill="#fff" fill-rule="evenodd"/></g><g id="back_c3" data-name="back c3"><path id="squa_circ-4" data-name="squa circ" d="M46.7,50.56a2.22,2.22,0,1,0,2.2,2.22A2.21,2.21,0,0,0,46.7,50.56Zm0,1.14,1.1,1.1-1.05,1.06-1.11-1.11Z" fill="#fff" fill-rule="evenodd"/><path id="squa_circ-5" data-name="squa circ" d="M53.78,43.47A2.22,2.22,0,1,0,56,45.69,2.21,2.21,0,0,0,53.78,43.47Zm0,1.14,1.11,1.1L53.8,46.77l-1.1-1.11Z" fill="#fff" fill-rule="evenodd"/><path id="squa_circ-6" data-name="squa circ" d="M53.78,50.56A2.22,2.22,0,1,0,56,52.78,2.21,2.21,0,0,0,53.78,50.56Zm0,1.14,1.11,1.1L53.8,53.86l-1.1-1.11Z" fill="#fff" fill-rule="evenodd"/></g><g id="back_c4" data-name="back c4"><g id="back_c5" data-name="back c5"><path id="squa_circ-7" data-name="squa circ" d="M60.87,36.38a2.22,2.22,0,1,0,2.21,2.22A2.21,2.21,0,0,0,60.87,36.38Zm0,1.14L62,38.62l-1.06,1.06-1.1-1.11Z" fill="#fff" fill-rule="evenodd"/><path id="squa_circ-8" data-name="squa circ" d="M68,36.38a2.22,2.22,0,1,0,2.21,2.22A2.21,2.21,0,0,0,68,36.38Zm0,1.14L69,38.62,68,39.68l-1.11-1.11Z" fill="#fff" fill-rule="evenodd"/><path id="squa_circ-9" data-name="squa circ" d="M75.05,36.38a2.22,2.22,0,1,0,2.21,2.22A2.21,2.21,0,0,0,75.05,36.38Zm0,1.14,1.11,1.1-1.06,1.06L74,38.57Z" fill="#fff" fill-rule="evenodd"/><path id="squa_circ-10" data-name="squa circ" d="M82.14,36.38a2.22,2.22,0,1,0,2.21,2.22A2.21,2.21,0,0,0,82.14,36.38Zm0,1.14,1.11,1.1-1.06,1.06-1.11-1.11Z" fill="#fff" fill-rule="evenodd"/></g><g id="back_c5-2" data-name="back c5"><path id="squa_circ-11" data-name="squa circ" d="M60.87,43.47a2.22,2.22,0,1,0,2.21,2.22A2.21,2.21,0,0,0,60.87,43.47Zm0,1.14L62,45.71l-1.06,1.06-1.1-1.11Z" fill="#fff" fill-rule="evenodd"/><path id="squa_circ-12" data-name="squa circ" d="M68,43.47a2.22,2.22,0,1,0,2.21,2.22A2.21,2.21,0,0,0,68,43.47Zm0,1.14L69,45.71,68,46.77l-1.11-1.11Z" fill="#fff" fill-rule="evenodd"/><path id="squa_circ-13" data-name="squa circ" d="M75.05,43.47a2.22,2.22,0,1,0,2.21,2.22A2.21,2.21,0,0,0,75.05,43.47Zm0,1.14,1.11,1.1-1.06,1.06L74,45.66Z" fill="#fff" fill-rule="evenodd"/><path id="squa_circ-14" data-name="squa circ" d="M82.14,43.47a2.22,2.22,0,1,0,2.21,2.22A2.21,2.21,0,0,0,82.14,43.47Zm0,1.14,1.11,1.1-1.06,1.06-1.11-1.11Z" fill="#fff" fill-rule="evenodd"/></g><g id="back_c5-3" data-name="back c5"><path id="squa_circ-15" data-name="squa circ" d="M60.88,50.56a2.22,2.22,0,1,0,2.2,2.22A2.21,2.21,0,0,0,60.88,50.56Zm0,1.14L62,52.8,60.9,53.86l-1.11-1.11Z" fill="#fff" fill-rule="evenodd"/><path id="squa_circ-16" data-name="squa circ" d="M68,50.56a2.22,2.22,0,1,0,2.21,2.22A2.21,2.21,0,0,0,68,50.56Zm0,1.14L69,52.8,68,53.86l-1.1-1.11Z" fill="#fff" fill-rule="evenodd"/><path id="squa_circ-17" data-name="squa circ" d="M75.05,50.56a2.22,2.22,0,1,0,2.21,2.22A2.21,2.21,0,0,0,75.05,50.56Zm0,1.14,1.11,1.1-1.06,1.06L74,52.75Z" fill="#fff" fill-rule="evenodd"/><path id="squa_circ-18" data-name="squa circ" d="M82.14,50.56a2.22,2.22,0,1,0,2.21,2.22A2.21,2.21,0,0,0,82.14,50.56Zm0,1.14,1.11,1.1-1.06,1.06-1.11-1.11Z" fill="#fff" fill-rule="evenodd"/></g><g id="back_c5-4" data-name="back c5"><path id="squa_circ-19" data-name="squa circ" d="M60.87,57.65a2.22,2.22,0,1,0,2.21,2.22A2.21,2.21,0,0,0,60.87,57.65Zm0,1.14L62,59.89,60.89,61l-1.1-1.11Z" fill="#fff" fill-rule="evenodd"/><path id="squa_circ-20" data-name="squa circ" d="M68,57.65a2.22,2.22,0,1,0,2.21,2.22A2.21,2.21,0,0,0,68,57.65Zm0,1.14L69,59.89,68,61l-1.11-1.11Z" fill="#fff" fill-rule="evenodd"/><path id="squa_circ-21" data-name="squa circ" d="M75.05,57.65a2.22,2.22,0,1,0,2.21,2.22A2.21,2.21,0,0,0,75.05,57.65Zm0,1.14,1.11,1.1L75.07,61,74,59.84Z" fill="#fff" fill-rule="evenodd"/><path id="squa_circ-22" data-name="squa circ" d="M82.14,57.65a2.22,2.22,0,1,0,2.21,2.22A2.21,2.21,0,0,0,82.14,57.65Zm0,1.14,1.11,1.1L82.16,61l-1.11-1.11Z" fill="#fff" fill-rule="evenodd"/></g><g id="back_c5-5" data-name="back c5"><path id="squa_circ-23" data-name="squa circ" d="M60.88,64.74A2.22,2.22,0,1,0,63.08,67,2.21,2.21,0,0,0,60.88,64.74Zm0,1.14L62,67,60.9,68l-1.11-1.11Z" fill="#fff" fill-rule="evenodd"/><path id="squa_circ-24" data-name="squa circ" d="M68,64.74A2.22,2.22,0,1,0,70.17,67,2.21,2.21,0,0,0,68,64.74Zm0,1.14L69,67,68,68l-1.1-1.11Z" fill="#fff" fill-rule="evenodd"/><path id="squa_circ-25" data-name="squa circ" d="M75.05,64.74A2.22,2.22,0,1,0,77.26,67,2.21,2.21,0,0,0,75.05,64.74Zm0,1.14L76.13,67,75.07,68,74,66.93Z" fill="#fff" fill-rule="evenodd"/><path id="squa_circ-26" data-name="squa circ" d="M82.14,64.74A2.22,2.22,0,1,0,84.35,67,2.21,2.21,0,0,0,82.14,64.74Zm0,1.14L83.22,67,82.16,68l-1.11-1.11Z" fill="#fff" fill-rule="evenodd"/></g></g><g id="back_c5-6" data-name="back c5"><path id="squa_circ-27" data-name="squa circ" d="M60.87,71.83a2.22,2.22,0,1,0,2.21,2.22A2.21,2.21,0,0,0,60.87,71.83Zm0,1.14L62,74.07l-1.06,1.06L59.79,74Z" fill="#fff" fill-rule="evenodd"/><path id="squa_circ-28" data-name="squa circ" d="M68,71.83a2.22,2.22,0,1,0,2.21,2.22A2.21,2.21,0,0,0,68,71.83Zm0,1.14L69,74.07,68,75.13,66.87,74Z" fill="#fff" fill-rule="evenodd"/><path id="squa_circ-29" data-name="squa circ" d="M75.05,71.83a2.22,2.22,0,1,0,2.21,2.22A2.21,2.21,0,0,0,75.05,71.83ZM75,73l1.11,1.1-1.06,1.06L74,74Z" fill="#fff" fill-rule="evenodd"/><path id="squa_circ-30" data-name="squa circ" d="M82.14,71.83a2.22,2.22,0,1,0,2.21,2.22A2.21,2.21,0,0,0,82.14,71.83Zm0,1.14,1.11,1.1-1.06,1.06L81.05,74Z" fill="#fff" fill-rule="evenodd"/></g><g id="back_c5-7" data-name="back c5"><path id="squa_circ-31" data-name="squa circ" d="M60.88,78.92a2.22,2.22,0,1,0,2.2,2.22A2.21,2.21,0,0,0,60.88,78.92Zm0,1.14,1.1,1.1L60.9,82.22l-1.11-1.11Z" fill="#fff" fill-rule="evenodd"/><path id="squa_circ-32" data-name="squa circ" d="M68,78.92a2.22,2.22,0,1,0,2.21,2.22A2.21,2.21,0,0,0,68,78.92Zm0,1.14L69,81.16,68,82.22l-1.1-1.11Z" fill="#fff" fill-rule="evenodd"/><path id="squa_circ-33" data-name="squa circ" d="M75.05,78.92a2.22,2.22,0,1,0,2.21,2.22A2.21,2.21,0,0,0,75.05,78.92Zm0,1.14,1.11,1.1-1.06,1.06L74,81.11Z" fill="#fff" fill-rule="evenodd"/><path id="squa_circ-34" data-name="squa circ" d="M82.14,78.92a2.22,2.22,0,1,0,2.21,2.22A2.21,2.21,0,0,0,82.14,78.92Zm0,1.14,1.11,1.1-1.06,1.06-1.11-1.11Z" fill="#fff" fill-rule="evenodd"/></g><g id="back_c5-8" data-name="back c5"><path id="squa_circ-35" data-name="squa circ" d="M60.87,86a2.22,2.22,0,1,0,2.21,2.22A2.21,2.21,0,0,0,60.87,86Zm0,1.14L62,88.25l-1.06,1.06-1.1-1.11Z" fill="#fff" fill-rule="evenodd"/><path id="squa_circ-36" data-name="squa circ" d="M68,86a2.22,2.22,0,1,0,2.21,2.22A2.21,2.21,0,0,0,68,86Zm0,1.14L69,88.25,68,89.31,66.87,88.2Z" fill="#fff" fill-rule="evenodd"/><path id="squa_circ-37" data-name="squa circ" d="M75.05,86a2.22,2.22,0,1,0,2.21,2.22A2.21,2.21,0,0,0,75.05,86Zm0,1.14,1.11,1.1-1.06,1.06L74,88.2Z" fill="#fff" fill-rule="evenodd"/><path id="squa_circ-38" data-name="squa circ" d="M82.14,86a2.22,2.22,0,1,0,2.21,2.22A2.21,2.21,0,0,0,82.14,86Zm0,1.14,1.11,1.1-1.06,1.06L81.05,88.2Z" fill="#fff" fill-rule="evenodd"/></g><g id="back_c4-2" data-name="back c4"><g id="back_c5-9" data-name="back c5"><path id="squa_circ-39" data-name="squa circ" d="M39.61,93.1a2.22,2.22,0,1,0,2.2,2.22A2.21,2.21,0,0,0,39.61,93.1Zm0,1.14,1.11,1.1L39.63,96.4l-1.11-1.11Z" fill="#fff" fill-rule="evenodd"/><path id="squa_circ-40" data-name="squa circ" d="M46.7,93.1a2.22,2.22,0,1,0,2.2,2.22A2.21,2.21,0,0,0,46.7,93.1Zm0,1.14,1.1,1.1L46.72,96.4l-1.11-1.11Z" fill="#fff" fill-rule="evenodd"/><path id="squa_circ-41" data-name="squa circ" d="M53.79,93.1A2.22,2.22,0,1,0,56,95.32,2.21,2.21,0,0,0,53.79,93.1Zm0,1.14,1.1,1.1-1,1.06L52.7,95.29Z" fill="#fff" fill-rule="evenodd"/><path id="squa_circ-42" data-name="squa circ" d="M60.87,93.1a2.22,2.22,0,1,0,2.21,2.22A2.21,2.21,0,0,0,60.87,93.1Zm0,1.14L62,95.34,60.89,96.4l-1.1-1.11Z" fill="#fff" fill-rule="evenodd"/></g><g id="back_c5-10" data-name="back c5"><path id="squa_circ-43" data-name="squa circ" d="M39.61,100.19a2.22,2.22,0,1,0,2.2,2.22A2.21,2.21,0,0,0,39.61,100.19Zm0,1.14,1.11,1.1-1.06,1.06-1.11-1.11Z" fill="#fff" fill-rule="evenodd"/><path id="squa_circ-44" data-name="squa circ" d="M46.7,100.19a2.22,2.22,0,1,0,2.2,2.22A2.21,2.21,0,0,0,46.7,100.19Zm0,1.14,1.1,1.1-1.05,1.06-1.11-1.11Z" fill="#fff" fill-rule="evenodd"/><path id="squa_circ-45" data-name="squa circ" d="M53.79,100.19a2.22,2.22,0,1,0,2.2,2.22A2.21,2.21,0,0,0,53.79,100.19Zm0,1.14,1.1,1.1-1,1.06-1.11-1.11Z" fill="#fff" fill-rule="evenodd"/><path id="squa_circ-46" data-name="squa circ" d="M60.87,100.19a2.22,2.22,0,1,0,2.21,2.22A2.21,2.21,0,0,0,60.87,100.19Zm0,1.14,1.11,1.1-1.06,1.06-1.1-1.11Z" fill="#fff" fill-rule="evenodd"/></g><g id="back_c5-11" data-name="back c5"><path id="squa_circ-47" data-name="squa circ" d="M39.61,107.28a2.22,2.22,0,1,0,2.2,2.22A2.21,2.21,0,0,0,39.61,107.28Zm0,1.14,1.11,1.1-1.06,1.06-1.11-1.11Z" fill="#fff" fill-rule="evenodd"/><path id="squa_circ-48" data-name="squa circ" d="M46.7,107.28a2.22,2.22,0,1,0,2.2,2.22A2.21,2.21,0,0,0,46.7,107.28Zm0,1.14,1.1,1.1-1.05,1.06-1.11-1.11Z" fill="#fff" fill-rule="evenodd"/><path id="squa_circ-49" data-name="squa circ" d="M53.79,107.28A2.22,2.22,0,1,0,56,109.5,2.21,2.21,0,0,0,53.79,107.28Zm0,1.14,1.1,1.1-1,1.06-1.11-1.11Z" fill="#fff" fill-rule="evenodd"/><path id="squa_circ-50" data-name="squa circ" d="M60.87,107.28a2.22,2.22,0,1,0,2.21,2.22A2.21,2.21,0,0,0,60.87,107.28Zm0,1.14,1.11,1.1-1.06,1.06-1.1-1.11Z" fill="#fff" fill-rule="evenodd"/></g><g id="back_c5-12" data-name="back c5"><path id="squa_circ-51" data-name="squa circ" d="M39.61,114.37a2.22,2.22,0,1,0,2.2,2.22A2.21,2.21,0,0,0,39.61,114.37Zm0,1.14,1.11,1.1-1.06,1.06-1.11-1.11Z" fill="#fff" fill-rule="evenodd"/><path id="squa_circ-52" data-name="squa circ" d="M46.7,114.37a2.22,2.22,0,1,0,2.2,2.22A2.21,2.21,0,0,0,46.7,114.37Zm0,1.14,1.1,1.1-1.05,1.06-1.11-1.11Z" fill="#fff" fill-rule="evenodd"/><path id="squa_circ-53" data-name="squa circ" d="M53.79,114.37a2.22,2.22,0,1,0,2.2,2.22A2.21,2.21,0,0,0,53.79,114.37Zm0,1.14,1.1,1.1-1,1.06-1.11-1.11Z" fill="#fff" fill-rule="evenodd"/><path id="squa_circ-54" data-name="squa circ" d="M60.87,114.37a2.22,2.22,0,1,0,2.21,2.22A2.21,2.21,0,0,0,60.87,114.37Zm0,1.14,1.11,1.1-1.06,1.06-1.1-1.11Z" fill="#fff" fill-rule="evenodd"/></g><g id="back_c5-13" data-name="back c5"><path id="squa_circ-55" data-name="squa circ" d="M39.61,121.46a2.22,2.22,0,1,0,2.2,2.22A2.21,2.21,0,0,0,39.61,121.46Zm0,1.14,1.11,1.1-1.06,1.06-1.11-1.11Z" fill="#fff" fill-rule="evenodd"/><path id="squa_circ-56" data-name="squa circ" d="M46.7,121.46a2.22,2.22,0,1,0,2.2,2.22A2.21,2.21,0,0,0,46.7,121.46Zm0,1.14,1.1,1.1-1.05,1.06-1.11-1.11Z" fill="#fff" fill-rule="evenodd"/><path id="squa_circ-57" data-name="squa circ" d="M53.79,121.46a2.22,2.22,0,1,0,2.2,2.22A2.21,2.21,0,0,0,53.79,121.46Zm0,1.14,1.1,1.1-1,1.06-1.11-1.11Z" fill="#fff" fill-rule="evenodd"/><path id="squa_circ-58" data-name="squa circ" d="M60.87,121.46a2.22,2.22,0,1,0,2.21,2.22A2.21,2.21,0,0,0,60.87,121.46Zm0,1.14L62,123.7l-1.06,1.06-1.1-1.11Z" fill="#fff" fill-rule="evenodd"/></g></g><g id="back_c3-2" data-name="back c3"><path id="squa_circ-59" data-name="squa circ" d="M75,97.54a2.22,2.22,0,1,0-2.21-2.22A2.21,2.21,0,0,0,75,97.54Zm0-1.14L74,95.3,75,94.24l1.11,1.11Z" fill="#fff" fill-rule="evenodd"/><path id="squa_circ-60" data-name="squa circ" d="M68,104.63a2.22,2.22,0,1,0-2.2-2.22A2.21,2.21,0,0,0,68,104.63Zm0-1.14-1.11-1.1,1.06-1.06L69,102.44Z" fill="#fff" fill-rule="evenodd"/><path id="squa_circ-61" data-name="squa circ" d="M68,97.54a2.22,2.22,0,1,0-2.2-2.22A2.21,2.21,0,0,0,68,97.54Zm0-1.14-1.11-1.1,1.06-1.06L69,95.35Z" fill="#fff" fill-rule="evenodd"/></g><g id="back_c2-2" data-name="back c2"><path id="squa_circ-62" data-name="squa circ" d="M39.61,64.74A2.22,2.22,0,1,0,41.81,67,2.21,2.21,0,0,0,39.61,64.74Zm0,1.14,1.1,1.1-1,1.06-1.11-1.11Z" fill="#fff" fill-rule="evenodd"/><path id="squa_circ-63" data-name="squa circ" d="M46.7,64.74A2.22,2.22,0,1,0,48.9,67,2.21,2.21,0,0,0,46.7,64.74Zm0,1.14L47.78,67,46.72,68l-1.11-1.11Z" fill="#fff" fill-rule="evenodd"/><path id="squa_circ-64" data-name="squa circ" d="M53.78,64.74A2.22,2.22,0,1,0,56,67,2.21,2.21,0,0,0,53.78,64.74Zm0,1.14L54.86,67,53.8,68l-1.1-1.11Z" fill="#fff" fill-rule="evenodd"/></g><g id="back_c2-3" data-name="back c2"><path id="squa_circ-65" data-name="squa circ" d="M39.61,71.83a2.22,2.22,0,1,0,2.2,2.22A2.21,2.21,0,0,0,39.61,71.83Zm0,1.14,1.1,1.1-1,1.06L38.52,74Z" fill="#fff" fill-rule="evenodd"/><path id="squa_circ-66" data-name="squa circ" d="M46.7,71.83a2.22,2.22,0,1,0,2.2,2.22A2.21,2.21,0,0,0,46.7,71.83Zm0,1.14,1.1,1.1-1.05,1.06L45.61,74Z" fill="#fff" fill-rule="evenodd"/><path id="squa_circ-67" data-name="squa circ" d="M53.78,71.83A2.22,2.22,0,1,0,56,74.05,2.21,2.21,0,0,0,53.78,71.83Zm0,1.14,1.11,1.1L53.8,75.13,52.7,74Z" fill="#fff" fill-rule="evenodd"/></g><g id="back_c2-4" data-name="back c2"><path id="squa_circ-68" data-name="squa circ" d="M39.61,78.92a2.22,2.22,0,1,0,2.2,2.22A2.21,2.21,0,0,0,39.61,78.92Zm0,1.14,1.1,1.1-1,1.06-1.11-1.11Z" fill="#fff" fill-rule="evenodd"/><path id="squa_circ-69" data-name="squa circ" d="M46.7,78.92a2.22,2.22,0,1,0,2.2,2.22A2.21,2.21,0,0,0,46.7,78.92Zm0,1.14,1.11,1.1-1.06,1.06-1.11-1.11Z" fill="#fff" fill-rule="evenodd"/><path id="squa_circ-70" data-name="squa circ" d="M53.78,78.92A2.22,2.22,0,1,0,56,81.14,2.21,2.21,0,0,0,53.78,78.92Zm0,1.14,1.11,1.1L53.8,82.22l-1.1-1.11Z" fill="#fff" fill-rule="evenodd"/></g><g id="back_c2-5" data-name="back c2"><path id="squa_circ-71" data-name="squa circ" d="M39.61,86a2.22,2.22,0,1,0,2.2,2.22A2.21,2.21,0,0,0,39.61,86Zm0,1.14,1.1,1.1-1,1.06L38.52,88.2Z" fill="#fff" fill-rule="evenodd"/><path id="squa_circ-72" data-name="squa circ" d="M46.7,86a2.22,2.22,0,1,0,2.2,2.22A2.21,2.21,0,0,0,46.7,86Zm0,1.14,1.1,1.1-1.05,1.06L45.61,88.2Z" fill="#fff" fill-rule="evenodd"/><path id="squa_circ-73" data-name="squa circ" d="M53.78,86A2.22,2.22,0,1,0,56,88.23,2.21,2.21,0,0,0,53.78,86Zm0,1.14,1.11,1.1L53.8,89.31,52.7,88.2Z" fill="#fff" fill-rule="evenodd"/></g></g><rect x="36.56" y="120.99" width="28.39" height="6.6" fill="#f0516e"/><g id="back_c1-2" data-name="back c1"><g id="back_c2-6" data-name="back c2"><path id="squa_circ-74" data-name="squa circ" d="M39.61,189.71a2.22,2.22,0,1,1,2.2-2.22A2.21,2.21,0,0,1,39.61,189.71Zm0-1.14,1.1-1.1-1-1.06-1.11,1.11Z" fill="#fff" fill-rule="evenodd"/><path id="squa_circ-75" data-name="squa circ" d="M46.7,189.71a2.22,2.22,0,1,1,2.2-2.22A2.21,2.21,0,0,1,46.7,189.71Zm0-1.14,1.1-1.1-1.05-1.06-1.11,1.11Z" fill="#fff" fill-rule="evenodd"/><path id="squa_circ-76" data-name="squa circ" d="M53.78,189.71A2.22,2.22,0,1,1,56,187.49,2.21,2.21,0,0,1,53.78,189.71Zm0-1.14,1.11-1.1-1.06-1.06-1.1,1.11Z" fill="#fff" fill-rule="evenodd"/></g><g id="back_c3-3" data-name="back c3"><path id="squa_circ-77" data-name="squa circ" d="M46.7,196.8a2.22,2.22,0,1,1,2.2-2.22A2.21,2.21,0,0,1,46.7,196.8Zm0-1.14,1.1-1.1-1.05-1.06-1.11,1.11Z" fill="#fff" fill-rule="evenodd"/><path id="squa_circ-78" data-name="squa circ" d="M53.78,203.89A2.22,2.22,0,1,1,56,201.67,2.21,2.21,0,0,1,53.78,203.89Zm0-1.14,1.11-1.1-1.06-1.06-1.1,1.11Z" fill="#fff" fill-rule="evenodd"/><path id="squa_circ-79" data-name="squa circ" d="M53.78,196.8A2.22,2.22,0,1,1,56,194.58,2.21,2.21,0,0,1,53.78,196.8Zm0-1.14,1.11-1.1L53.8,193.5l-1.1,1.11Z" fill="#fff" fill-rule="evenodd"/></g><g id="back_c4-3" data-name="back c4"><g id="back_c5-14" data-name="back c5"><path id="squa_circ-80" data-name="squa circ" d="M60.87,211a2.22,2.22,0,1,1,2.21-2.22A2.21,2.21,0,0,1,60.87,211Zm0-1.14,1.11-1.1-1.06-1.06-1.1,1.11Z" fill="#fff" fill-rule="evenodd"/><path id="squa_circ-81" data-name="squa circ" d="M68,211a2.22,2.22,0,1,1,2.21-2.22A2.21,2.21,0,0,1,68,211Zm0-1.14,1.11-1.1L68,207.68l-1.11,1.11Z" fill="#fff" fill-rule="evenodd"/><path id="squa_circ-82" data-name="squa circ" d="M75.05,211a2.22,2.22,0,1,1,2.21-2.22A2.21,2.21,0,0,1,75.05,211Zm0-1.14,1.11-1.1-1.06-1.06L74,208.79Z" fill="#fff" fill-rule="evenodd"/><path id="squa_circ-83" data-name="squa circ" d="M82.14,211a2.22,2.22,0,1,1,2.21-2.22A2.21,2.21,0,0,1,82.14,211Zm0-1.14,1.11-1.1-1.06-1.06-1.11,1.11Z" fill="#fff" fill-rule="evenodd"/></g><g id="back_c5-15" data-name="back c5"><path id="squa_circ-84" data-name="squa circ" d="M60.87,203.89a2.22,2.22,0,1,1,2.21-2.22A2.21,2.21,0,0,1,60.87,203.89Zm0-1.14,1.11-1.1-1.06-1.06-1.1,1.11Z" fill="#fff" fill-rule="evenodd"/><path id="squa_circ-85" data-name="squa circ" d="M68,203.89a2.22,2.22,0,1,1,2.21-2.22A2.21,2.21,0,0,1,68,203.89Zm0-1.14,1.11-1.1L68,200.59l-1.11,1.11Z" fill="#fff" fill-rule="evenodd"/><path id="squa_circ-86" data-name="squa circ" d="M75.05,203.89a2.22,2.22,0,1,1,2.21-2.22A2.21,2.21,0,0,1,75.05,203.89Zm0-1.14,1.11-1.1-1.06-1.06L74,201.7Z" fill="#fff" fill-rule="evenodd"/><path id="squa_circ-87" data-name="squa circ" d="M82.14,203.89a2.22,2.22,0,1,1,2.21-2.22A2.21,2.21,0,0,1,82.14,203.89Zm0-1.14,1.11-1.1-1.06-1.06-1.11,1.11Z" fill="#fff" fill-rule="evenodd"/></g><g id="back_c5-16" data-name="back c5"><path id="squa_circ-88" data-name="squa circ" d="M60.88,196.8a2.22,2.22,0,1,1,2.2-2.22A2.21,2.21,0,0,1,60.88,196.8Zm0-1.14,1.1-1.1L60.9,193.5l-1.11,1.11Z" fill="#fff" fill-rule="evenodd"/><path id="squa_circ-89" data-name="squa circ" d="M68,196.8a2.22,2.22,0,1,1,2.21-2.22A2.21,2.21,0,0,1,68,196.8Zm0-1.14,1.11-1.1L68,193.5l-1.1,1.11Z" fill="#fff" fill-rule="evenodd"/><path id="squa_circ-90" data-name="squa circ" d="M75.05,196.8a2.22,2.22,0,1,1,2.21-2.22A2.21,2.21,0,0,1,75.05,196.8Zm0-1.14,1.11-1.1-1.06-1.06L74,194.61Z" fill="#fff" fill-rule="evenodd"/><path id="squa_circ-91" data-name="squa circ" d="M82.14,196.8a2.22,2.22,0,1,1,2.21-2.22A2.21,2.21,0,0,1,82.14,196.8Zm0-1.14,1.11-1.1-1.06-1.06-1.11,1.11Z" fill="#fff" fill-rule="evenodd"/></g><g id="back_c5-17" data-name="back c5"><path id="squa_circ-92" data-name="squa circ" d="M60.87,189.71a2.22,2.22,0,1,1,2.21-2.22A2.21,2.21,0,0,1,60.87,189.71Zm0-1.14,1.11-1.1-1.06-1.06-1.1,1.11Z" fill="#fff" fill-rule="evenodd"/><path id="squa_circ-93" data-name="squa circ" d="M68,189.71a2.22,2.22,0,1,1,2.21-2.22A2.21,2.21,0,0,1,68,189.71Zm0-1.14,1.11-1.1L68,186.41l-1.11,1.11Z" fill="#fff" fill-rule="evenodd"/><path id="squa_circ-94" data-name="squa circ" d="M75.05,189.71a2.22,2.22,0,1,1,2.21-2.22A2.21,2.21,0,0,1,75.05,189.71Zm0-1.14,1.11-1.1-1.06-1.06L74,187.52Z" fill="#fff" fill-rule="evenodd"/><path id="squa_circ-95" data-name="squa circ" d="M82.14,189.71a2.22,2.22,0,1,1,2.21-2.22A2.21,2.21,0,0,1,82.14,189.71Zm0-1.14,1.11-1.1-1.06-1.06-1.11,1.11Z" fill="#fff" fill-rule="evenodd"/></g><g id="back_c5-18" data-name="back c5"><path id="squa_circ-96" data-name="squa circ" d="M60.88,182.62a2.22,2.22,0,1,1,2.2-2.22A2.21,2.21,0,0,1,60.88,182.62Zm0-1.14,1.1-1.1-1.05-1.06-1.11,1.11Z" fill="#fff" fill-rule="evenodd"/><path id="squa_circ-97" data-name="squa circ" d="M68,182.62a2.22,2.22,0,1,1,2.21-2.22A2.21,2.21,0,0,1,68,182.62Zm0-1.14,1.11-1.1L68,179.32l-1.1,1.11Z" fill="#fff" fill-rule="evenodd"/><path id="squa_circ-98" data-name="squa circ" d="M75.05,182.62a2.22,2.22,0,1,1,2.21-2.22A2.21,2.21,0,0,1,75.05,182.62Zm0-1.14,1.11-1.1-1.06-1.06L74,180.43Z" fill="#fff" fill-rule="evenodd"/><path id="squa_circ-99" data-name="squa circ" d="M82.14,182.62a2.22,2.22,0,1,1,2.21-2.22A2.21,2.21,0,0,1,82.14,182.62Zm0-1.14,1.11-1.1-1.06-1.06-1.11,1.11Z" fill="#fff" fill-rule="evenodd"/></g></g><g id="back_c5-19" data-name="back c5"><path id="squa_circ-100" data-name="squa circ" d="M60.87,175.53a2.22,2.22,0,1,1,2.21-2.22A2.21,2.21,0,0,1,60.87,175.53Zm0-1.14,1.11-1.1-1.06-1.06-1.1,1.11Z" fill="#fff" fill-rule="evenodd"/><path id="squa_circ-101" data-name="squa circ" d="M68,175.53a2.22,2.22,0,1,1,2.21-2.22A2.21,2.21,0,0,1,68,175.53Zm0-1.14,1.11-1.1L68,172.23l-1.11,1.11Z" fill="#fff" fill-rule="evenodd"/><path id="squa_circ-102" data-name="squa circ" d="M75.05,175.53a2.22,2.22,0,1,1,2.21-2.22A2.21,2.21,0,0,1,75.05,175.53Zm0-1.14,1.11-1.1-1.06-1.06L74,173.34Z" fill="#fff" fill-rule="evenodd"/><path id="squa_circ-103" data-name="squa circ" d="M82.14,175.53a2.22,2.22,0,1,1,2.21-2.22A2.21,2.21,0,0,1,82.14,175.53Zm0-1.14,1.11-1.1-1.06-1.06-1.11,1.11Z" fill="#fff" fill-rule="evenodd"/></g><g id="back_c5-20" data-name="back c5"><path id="squa_circ-104" data-name="squa circ" d="M60.88,168.44a2.22,2.22,0,1,1,2.2-2.22A2.21,2.21,0,0,1,60.88,168.44Zm0-1.14,1.1-1.1-1.05-1.06-1.11,1.11Z" fill="#fff" fill-rule="evenodd"/><path id="squa_circ-105" data-name="squa circ" d="M68,168.44a2.22,2.22,0,1,1,2.21-2.22A2.21,2.21,0,0,1,68,168.44Zm0-1.14L69,166.2,68,165.14l-1.1,1.11Z" fill="#fff" fill-rule="evenodd"/><path id="squa_circ-106" data-name="squa circ" d="M75.05,168.44a2.22,2.22,0,1,1,2.21-2.22A2.21,2.21,0,0,1,75.05,168.44Zm0-1.14,1.11-1.1-1.06-1.06L74,166.25Z" fill="#fff" fill-rule="evenodd"/><path id="squa_circ-107" data-name="squa circ" d="M82.14,168.44a2.22,2.22,0,1,1,2.21-2.22A2.21,2.21,0,0,1,82.14,168.44Zm0-1.14,1.11-1.1-1.06-1.06-1.11,1.11Z" fill="#fff" fill-rule="evenodd"/></g><g id="back_c5-21" data-name="back c5"><path id="squa_circ-108" data-name="squa circ" d="M60.87,161.35a2.22,2.22,0,1,1,2.21-2.22A2.21,2.21,0,0,1,60.87,161.35Zm0-1.14,1.11-1.1-1.06-1.06-1.1,1.11Z" fill="#fff" fill-rule="evenodd"/><path id="squa_circ-109" data-name="squa circ" d="M68,161.35a2.22,2.22,0,1,1,2.21-2.22A2.21,2.21,0,0,1,68,161.35Zm0-1.14,1.11-1.1L68,158.05l-1.11,1.11Z" fill="#fff" fill-rule="evenodd"/><path id="squa_circ-110" data-name="squa circ" d="M75.05,161.35a2.22,2.22,0,1,1,2.21-2.22A2.21,2.21,0,0,1,75.05,161.35Zm0-1.14,1.11-1.1-1.06-1.06L74,159.16Z" fill="#fff" fill-rule="evenodd"/><path id="squa_circ-111" data-name="squa circ" d="M82.14,161.35a2.22,2.22,0,1,1,2.21-2.22A2.21,2.21,0,0,1,82.14,161.35Zm0-1.14,1.11-1.1-1.06-1.06-1.11,1.11Z" fill="#fff" fill-rule="evenodd"/></g><g id="back_c4-4" data-name="back c4"><g id="back_c5-22" data-name="back c5"><path id="squa_circ-112" data-name="squa circ" d="M39.61,154.26a2.22,2.22,0,1,1,2.2-2.22A2.21,2.21,0,0,1,39.61,154.26Zm0-1.14,1.11-1.1L39.63,151l-1.11,1.11Z" fill="#fff" fill-rule="evenodd"/><path id="squa_circ-113" data-name="squa circ" d="M46.7,154.26A2.22,2.22,0,1,1,48.9,152,2.21,2.21,0,0,1,46.7,154.26Zm0-1.14,1.1-1.1L46.72,151l-1.11,1.11Z" fill="#fff" fill-rule="evenodd"/><path id="squa_circ-114" data-name="squa circ" d="M53.79,154.26A2.22,2.22,0,1,1,56,152,2.21,2.21,0,0,1,53.79,154.26Zm0-1.14,1.1-1.1-1-1.06-1.11,1.11Z" fill="#fff" fill-rule="evenodd"/><path id="squa_circ-115" data-name="squa circ" d="M60.87,154.26A2.22,2.22,0,1,1,63.08,152,2.21,2.21,0,0,1,60.87,154.26Zm0-1.14L62,152,60.89,151l-1.1,1.11Z" fill="#fff" fill-rule="evenodd"/></g><g id="back_c5-23" data-name="back c5"><path id="squa_circ-116" data-name="squa circ" d="M39.61,147.17a2.22,2.22,0,1,1,2.2-2.22A2.21,2.21,0,0,1,39.61,147.17Zm0-1.14,1.11-1.1-1.06-1.06L38.52,145Z" fill="#fff" fill-rule="evenodd"/><path id="squa_circ-117" data-name="squa circ" d="M46.7,147.17A2.22,2.22,0,1,1,48.9,145,2.21,2.21,0,0,1,46.7,147.17Zm0-1.14,1.1-1.1-1.05-1.06L45.61,145Z" fill="#fff" fill-rule="evenodd"/><path id="squa_circ-118" data-name="squa circ" d="M53.79,147.17A2.22,2.22,0,1,1,56,145,2.21,2.21,0,0,1,53.79,147.17Zm0-1.14,1.1-1.1-1-1.06L52.7,145Z" fill="#fff" fill-rule="evenodd"/><path id="squa_circ-119" data-name="squa circ" d="M60.87,147.17A2.22,2.22,0,1,1,63.08,145,2.21,2.21,0,0,1,60.87,147.17Zm0-1.14,1.11-1.1-1.06-1.06L59.79,145Z" fill="#fff" fill-rule="evenodd"/></g><g id="back_c5-24" data-name="back c5"><path id="squa_circ-120" data-name="squa circ" d="M39.61,140.08a2.22,2.22,0,1,1,2.2-2.22A2.21,2.21,0,0,1,39.61,140.08Zm0-1.14,1.11-1.1-1.06-1.06-1.11,1.11Z" fill="#fff" fill-rule="evenodd"/><path id="squa_circ-121" data-name="squa circ" d="M46.7,140.08a2.22,2.22,0,1,1,2.2-2.22A2.21,2.21,0,0,1,46.7,140.08Zm0-1.14,1.1-1.1-1.05-1.06-1.11,1.11Z" fill="#fff" fill-rule="evenodd"/><path id="squa_circ-122" data-name="squa circ" d="M53.79,140.08a2.22,2.22,0,1,1,2.2-2.22A2.21,2.21,0,0,1,53.79,140.08Zm0-1.14,1.1-1.1-1-1.06-1.11,1.11Z" fill="#fff" fill-rule="evenodd"/><path id="squa_circ-123" data-name="squa circ" d="M60.87,140.08a2.22,2.22,0,1,1,2.21-2.22A2.21,2.21,0,0,1,60.87,140.08Zm0-1.14,1.11-1.1-1.06-1.06-1.1,1.11Z" fill="#fff" fill-rule="evenodd"/></g><g id="back_c5-25" data-name="back c5"><path id="squa_circ-124" data-name="squa circ" d="M39.61,133a2.22,2.22,0,1,1,2.2-2.22A2.21,2.21,0,0,1,39.61,133Zm0-1.14,1.11-1.1-1.06-1.06-1.11,1.11Z" fill="#fff" fill-rule="evenodd"/><path id="squa_circ-125" data-name="squa circ" d="M46.7,133a2.22,2.22,0,1,1,2.2-2.22A2.21,2.21,0,0,1,46.7,133Zm0-1.14,1.1-1.1-1.05-1.06-1.11,1.11Z" fill="#fff" fill-rule="evenodd"/><path id="squa_circ-126" data-name="squa circ" d="M53.79,133a2.22,2.22,0,1,1,2.2-2.22A2.21,2.21,0,0,1,53.79,133Zm0-1.14,1.1-1.1-1-1.06L52.7,130.8Z" fill="#fff" fill-rule="evenodd"/><path id="squa_circ-127" data-name="squa circ" d="M60.87,133a2.22,2.22,0,1,1,2.21-2.22A2.21,2.21,0,0,1,60.87,133Zm0-1.14,1.11-1.1-1.06-1.06-1.1,1.11Z" fill="#fff" fill-rule="evenodd"/></g><g id="back_c5-26" data-name="back c5"><path id="squa_circ-128" data-name="squa circ" d="M39.61,125.9a2.22,2.22,0,1,1,2.2-2.22A2.21,2.21,0,0,1,39.61,125.9Zm0-1.14,1.11-1.1-1.06-1.06-1.11,1.11Z" fill="#fff" fill-rule="evenodd"/><path id="squa_circ-129" data-name="squa circ" d="M46.7,125.9a2.22,2.22,0,1,1,2.2-2.22A2.21,2.21,0,0,1,46.7,125.9Zm0-1.14,1.1-1.1-1.05-1.06-1.11,1.11Z" fill="#fff" fill-rule="evenodd"/><path id="squa_circ-130" data-name="squa circ" d="M53.79,125.9a2.22,2.22,0,1,1,2.2-2.22A2.21,2.21,0,0,1,53.79,125.9Zm0-1.14,1.1-1.1-1-1.06-1.11,1.11Z" fill="#fff" fill-rule="evenodd"/><path id="squa_circ-131" data-name="squa circ" d="M60.87,125.9a2.22,2.22,0,1,1,2.21-2.22A2.21,2.21,0,0,1,60.87,125.9Zm0-1.14,1.11-1.1-1.06-1.06-1.1,1.11Z" fill="#fff" fill-rule="evenodd"/></g></g><g id="back_c3-4" data-name="back c3"><path id="squa_circ-132" data-name="squa circ" d="M75,149.82A2.22,2.22,0,1,1,72.83,152,2.21,2.21,0,0,1,75,149.82Zm0,1.14L74,152.06,75,153.12,76.13,152Z" fill="#fff" fill-rule="evenodd"/><path id="squa_circ-133" data-name="squa circ" d="M68,142.73a2.22,2.22,0,1,1-2.2,2.22A2.21,2.21,0,0,1,68,142.73Zm0,1.14L66.87,145,67.93,146,69,144.92Z" fill="#fff" fill-rule="evenodd"/><path id="squa_circ-134" data-name="squa circ" d="M68,149.82a2.22,2.22,0,1,1-2.2,2.22A2.21,2.21,0,0,1,68,149.82ZM68,151l-1.11,1.1,1.06,1.06L69,152Z" fill="#fff" fill-rule="evenodd"/></g><g id="back_c2-7" data-name="back c2"><path id="squa_circ-135" data-name="squa circ" d="M39.61,182.62a2.22,2.22,0,1,1,2.2-2.22A2.21,2.21,0,0,1,39.61,182.62Zm0-1.14,1.1-1.1-1-1.06-1.11,1.11Z" fill="#fff" fill-rule="evenodd"/><path id="squa_circ-136" data-name="squa circ" d="M46.7,182.62a2.22,2.22,0,1,1,2.2-2.22A2.21,2.21,0,0,1,46.7,182.62Zm0-1.14,1.11-1.1-1.06-1.06-1.11,1.11Z" fill="#fff" fill-rule="evenodd"/><path id="squa_circ-137" data-name="squa circ" d="M53.78,182.62A2.22,2.22,0,1,1,56,180.4,2.21,2.21,0,0,1,53.78,182.62Zm0-1.14,1.11-1.1-1.06-1.06-1.1,1.11Z" fill="#fff" fill-rule="evenodd"/></g><g id="back_c2-8" data-name="back c2"><path id="squa_circ-138" data-name="squa circ" d="M39.61,175.53a2.22,2.22,0,1,1,2.2-2.22A2.21,2.21,0,0,1,39.61,175.53Zm0-1.14,1.1-1.1-1-1.06-1.11,1.11Z" fill="#fff" fill-rule="evenodd"/><path id="squa_circ-139" data-name="squa circ" d="M46.7,175.53a2.22,2.22,0,1,1,2.2-2.22A2.21,2.21,0,0,1,46.7,175.53Zm0-1.14,1.1-1.1-1.05-1.06-1.11,1.11Z" fill="#fff" fill-rule="evenodd"/><path id="squa_circ-140" data-name="squa circ" d="M53.78,175.53A2.22,2.22,0,1,1,56,173.31,2.21,2.21,0,0,1,53.78,175.53Zm0-1.14,1.11-1.1-1.06-1.06-1.1,1.11Z" fill="#fff" fill-rule="evenodd"/></g><g id="back_c2-9" data-name="back c2"><path id="squa_circ-141" data-name="squa circ" d="M39.61,168.44a2.22,2.22,0,1,1,2.2-2.22A2.21,2.21,0,0,1,39.61,168.44Zm0-1.14,1.1-1.1-1-1.06-1.11,1.11Z" fill="#fff" fill-rule="evenodd"/><path id="squa_circ-142" data-name="squa circ" d="M46.7,168.44a2.22,2.22,0,1,1,2.2-2.22A2.21,2.21,0,0,1,46.7,168.44Zm0-1.14,1.11-1.1-1.06-1.06-1.11,1.11Z" fill="#fff" fill-rule="evenodd"/><path id="squa_circ-143" data-name="squa circ" d="M53.78,168.44A2.22,2.22,0,1,1,56,166.22,2.21,2.21,0,0,1,53.78,168.44Zm0-1.14,1.11-1.1-1.06-1.06-1.1,1.11Z" fill="#fff" fill-rule="evenodd"/></g><g id="back_c2-10" data-name="back c2"><path id="squa_circ-144" data-name="squa circ" d="M39.61,161.35a2.22,2.22,0,1,1,2.2-2.22A2.21,2.21,0,0,1,39.61,161.35Zm0-1.14,1.1-1.1-1-1.06-1.11,1.11Z" fill="#fff" fill-rule="evenodd"/><path id="squa_circ-145" data-name="squa circ" d="M46.7,161.35a2.22,2.22,0,1,1,2.2-2.22A2.21,2.21,0,0,1,46.7,161.35Zm0-1.14,1.1-1.1-1.05-1.06-1.11,1.11Z" fill="#fff" fill-rule="evenodd"/><path id="squa_circ-146" data-name="squa circ" d="M53.78,161.35A2.22,2.22,0,1,1,56,159.13,2.21,2.21,0,0,1,53.78,161.35Zm0-1.14,1.11-1.1-1.06-1.06-1.1,1.11Z" fill="#fff" fill-rule="evenodd"/></g></g><g id="back_c1-3" data-name="back c1"><g id="back_c2-11" data-name="back c2"><path id="squa_circ-147" data-name="squa circ" d="M131.76,57.65a2.22,2.22,0,1,1-2.21,2.22A2.21,2.21,0,0,1,131.76,57.65Zm0,1.14-1.11,1.1L131.74,61l1.11-1.11Z" fill="#fff" fill-rule="evenodd"/><path id="squa_circ-148" data-name="squa circ" d="M124.67,57.65a2.22,2.22,0,1,1-2.21,2.22A2.21,2.21,0,0,1,124.67,57.65Zm0,1.14-1.11,1.1L124.65,61l1.11-1.11Z" fill="#fff" fill-rule="evenodd"/><path id="squa_circ-149" data-name="squa circ" d="M117.58,57.65a2.22,2.22,0,1,1-2.21,2.22A2.21,2.21,0,0,1,117.58,57.65Zm0,1.14-1.11,1.1L117.56,61l1.11-1.11Z" fill="#fff" fill-rule="evenodd"/></g><g id="back_c3-5" data-name="back c3"><path id="squa_circ-150" data-name="squa circ" d="M124.67,50.56a2.22,2.22,0,1,1-2.21,2.22A2.21,2.21,0,0,1,124.67,50.56Zm0,1.14-1.11,1.1,1.06,1.06,1.11-1.11Z" fill="#fff" fill-rule="evenodd"/><path id="squa_circ-151" data-name="squa circ" d="M117.58,43.47a2.22,2.22,0,1,1-2.21,2.22A2.21,2.21,0,0,1,117.58,43.47Zm0,1.14-1.11,1.1,1.06,1.06,1.11-1.11Z" fill="#fff" fill-rule="evenodd"/><path id="squa_circ-152" data-name="squa circ" d="M117.58,50.56a2.22,2.22,0,1,1-2.21,2.22A2.21,2.21,0,0,1,117.58,50.56Zm0,1.14-1.11,1.1,1.06,1.06,1.11-1.11Z" fill="#fff" fill-rule="evenodd"/></g><g id="back_c4-5" data-name="back c4"><g id="back_c5-27" data-name="back c5"><path id="squa_circ-153" data-name="squa circ" d="M110.49,36.38a2.22,2.22,0,1,1-2.21,2.22A2.21,2.21,0,0,1,110.49,36.38Zm0,1.14-1.11,1.1,1.06,1.06,1.11-1.11Z" fill="#fff" fill-rule="evenodd"/><path id="squa_circ-154" data-name="squa circ" d="M103.4,36.38a2.22,2.22,0,1,1-2.2,2.22A2.21,2.21,0,0,1,103.4,36.38Zm0,1.14-1.11,1.1,1.06,1.06,1.11-1.11Z" fill="#fff" fill-rule="evenodd"/><path id="squa_circ-155" data-name="squa circ" d="M96.31,36.38a2.22,2.22,0,1,1-2.2,2.22A2.21,2.21,0,0,1,96.31,36.38Zm0,1.14-1.11,1.1,1.06,1.06,1.11-1.11Z" fill="#fff" fill-rule="evenodd"/><path id="squa_circ-156" data-name="squa circ" d="M89.22,36.38A2.22,2.22,0,1,1,87,38.6,2.21,2.21,0,0,1,89.22,36.38Zm0,1.14-1.11,1.1,1.06,1.06,1.11-1.11Z" fill="#fff" fill-rule="evenodd"/></g><g id="back_c5-28" data-name="back c5"><path id="squa_circ-157" data-name="squa circ" d="M110.49,43.47a2.22,2.22,0,1,1-2.21,2.22A2.21,2.21,0,0,1,110.49,43.47Zm0,1.14-1.11,1.1,1.06,1.06,1.11-1.11Z" fill="#fff" fill-rule="evenodd"/><path id="squa_circ-158" data-name="squa circ" d="M103.4,43.47a2.22,2.22,0,1,1-2.2,2.22A2.21,2.21,0,0,1,103.4,43.47Zm0,1.14-1.11,1.1,1.06,1.06,1.11-1.11Z" fill="#fff" fill-rule="evenodd"/><path id="squa_circ-159" data-name="squa circ" d="M96.31,43.47a2.22,2.22,0,1,1-2.2,2.22A2.21,2.21,0,0,1,96.31,43.47Zm0,1.14-1.11,1.1,1.06,1.06,1.11-1.11Z" fill="#fff" fill-rule="evenodd"/><path id="squa_circ-160" data-name="squa circ" d="M89.22,43.47A2.22,2.22,0,1,1,87,45.69,2.21,2.21,0,0,1,89.22,43.47Zm0,1.14-1.11,1.1,1.06,1.06,1.11-1.11Z" fill="#fff" fill-rule="evenodd"/></g><g id="back_c5-29" data-name="back c5"><path id="squa_circ-161" data-name="squa circ" d="M110.49,50.56a2.22,2.22,0,1,1-2.21,2.22A2.21,2.21,0,0,1,110.49,50.56Zm0,1.14-1.11,1.1,1.06,1.06,1.11-1.11Z" fill="#fff" fill-rule="evenodd"/><path id="squa_circ-162" data-name="squa circ" d="M103.4,50.56a2.22,2.22,0,1,1-2.21,2.22A2.21,2.21,0,0,1,103.4,50.56Zm0,1.14-1.11,1.1,1.06,1.06,1.11-1.11Z" fill="#fff" fill-rule="evenodd"/><path id="squa_circ-163" data-name="squa circ" d="M96.31,50.56a2.22,2.22,0,1,1-2.2,2.22A2.21,2.21,0,0,1,96.31,50.56Zm0,1.14-1.11,1.1,1.06,1.06,1.11-1.11Z" fill="#fff" fill-rule="evenodd"/><path id="squa_circ-164" data-name="squa circ" d="M89.22,50.56A2.22,2.22,0,1,1,87,52.78,2.21,2.21,0,0,1,89.22,50.56Zm0,1.14-1.11,1.1,1.06,1.06,1.11-1.11Z" fill="#fff" fill-rule="evenodd"/></g><g id="back_c5-30" data-name="back c5"><path id="squa_circ-165" data-name="squa circ" d="M110.49,57.65a2.22,2.22,0,1,1-2.21,2.22A2.21,2.21,0,0,1,110.49,57.65Zm0,1.14-1.11,1.1L110.47,61l1.11-1.11Z" fill="#fff" fill-rule="evenodd"/><path id="squa_circ-166" data-name="squa circ" d="M103.4,57.65a2.22,2.22,0,1,1-2.2,2.22A2.21,2.21,0,0,1,103.4,57.65Zm0,1.14-1.11,1.1L103.38,61l1.11-1.11Z" fill="#fff" fill-rule="evenodd"/><path id="squa_circ-167" data-name="squa circ" d="M96.31,57.65a2.22,2.22,0,1,1-2.2,2.22A2.21,2.21,0,0,1,96.31,57.65Zm0,1.14-1.11,1.1L96.29,61l1.11-1.11Z" fill="#fff" fill-rule="evenodd"/><path id="squa_circ-168" data-name="squa circ" d="M89.22,57.65A2.22,2.22,0,1,1,87,59.87,2.21,2.21,0,0,1,89.22,57.65Zm0,1.14-1.11,1.1L89.2,61l1.11-1.11Z" fill="#fff" fill-rule="evenodd"/></g><g id="back_c5-31" data-name="back c5"><path id="squa_circ-169" data-name="squa circ" d="M110.49,64.74A2.22,2.22,0,1,1,108.28,67,2.21,2.21,0,0,1,110.49,64.74Zm0,1.14L109.41,67,110.47,68l1.11-1.11Z" fill="#fff" fill-rule="evenodd"/><path id="squa_circ-170" data-name="squa circ" d="M103.4,64.74A2.22,2.22,0,1,1,101.19,67,2.21,2.21,0,0,1,103.4,64.74Zm0,1.14L102.32,67,103.38,68l1.11-1.11Z" fill="#fff" fill-rule="evenodd"/><path id="squa_circ-171" data-name="squa circ" d="M96.31,64.74A2.22,2.22,0,1,1,94.11,67,2.21,2.21,0,0,1,96.31,64.74Zm0,1.14L95.23,67,96.29,68l1.11-1.11Z" fill="#fff" fill-rule="evenodd"/><path id="squa_circ-172" data-name="squa circ" d="M89.22,64.74A2.22,2.22,0,1,1,87,67,2.21,2.21,0,0,1,89.22,64.74Zm0,1.14L88.14,67,89.2,68l1.11-1.11Z" fill="#fff" fill-rule="evenodd"/></g></g><g id="back_c5-32" data-name="back c5"><path id="squa_circ-173" data-name="squa circ" d="M110.49,71.83a2.22,2.22,0,1,1-2.21,2.22A2.21,2.21,0,0,1,110.49,71.83Zm0,1.14-1.11,1.1,1.06,1.06L111.58,74Z" fill="#fff" fill-rule="evenodd"/><path id="squa_circ-174" data-name="squa circ" d="M103.4,71.83a2.22,2.22,0,1,1-2.2,2.22A2.21,2.21,0,0,1,103.4,71.83Zm0,1.14-1.11,1.1,1.06,1.06L104.49,74Z" fill="#fff" fill-rule="evenodd"/><path id="squa_circ-175" data-name="squa circ" d="M96.31,71.83a2.22,2.22,0,1,1-2.2,2.22A2.21,2.21,0,0,1,96.31,71.83Zm0,1.14-1.11,1.1,1.06,1.06L97.4,74Z" fill="#fff" fill-rule="evenodd"/><path id="squa_circ-176" data-name="squa circ" d="M89.22,71.83A2.22,2.22,0,1,1,87,74.05,2.21,2.21,0,0,1,89.22,71.83Zm0,1.14-1.11,1.1,1.06,1.06L90.31,74Z" fill="#fff" fill-rule="evenodd"/></g><g id="back_c5-33" data-name="back c5"><path id="squa_circ-177" data-name="squa circ" d="M110.49,78.92a2.22,2.22,0,1,1-2.21,2.22A2.21,2.21,0,0,1,110.49,78.92Zm0,1.14-1.11,1.1,1.06,1.06,1.11-1.11Z" fill="#fff" fill-rule="evenodd"/><path id="squa_circ-178" data-name="squa circ" d="M103.4,78.92a2.22,2.22,0,1,1-2.21,2.22A2.21,2.21,0,0,1,103.4,78.92Zm0,1.14-1.11,1.1,1.06,1.06,1.11-1.11Z" fill="#fff" fill-rule="evenodd"/><path id="squa_circ-179" data-name="squa circ" d="M96.31,78.92a2.22,2.22,0,1,1-2.2,2.22A2.21,2.21,0,0,1,96.31,78.92Zm0,1.14-1.11,1.1,1.06,1.06,1.11-1.11Z" fill="#fff" fill-rule="evenodd"/><path id="squa_circ-180" data-name="squa circ" d="M89.22,78.92A2.22,2.22,0,1,1,87,81.14,2.21,2.21,0,0,1,89.22,78.92Zm0,1.14-1.11,1.1,1.06,1.06,1.11-1.11Z" fill="#fff" fill-rule="evenodd"/></g><g id="back_c5-34" data-name="back c5"><path id="squa_circ-181" data-name="squa circ" d="M110.49,86a2.22,2.22,0,1,1-2.21,2.22A2.21,2.21,0,0,1,110.49,86Zm0,1.14-1.11,1.1,1.06,1.06,1.11-1.11Z" fill="#fff" fill-rule="evenodd"/><path id="squa_circ-182" data-name="squa circ" d="M103.4,86a2.22,2.22,0,1,1-2.2,2.22A2.21,2.21,0,0,1,103.4,86Zm0,1.14-1.11,1.1,1.06,1.06,1.11-1.11Z" fill="#fff" fill-rule="evenodd"/><path id="squa_circ-183" data-name="squa circ" d="M96.31,86a2.22,2.22,0,1,1-2.2,2.22A2.21,2.21,0,0,1,96.31,86Zm0,1.14-1.11,1.1,1.06,1.06L97.4,88.2Z" fill="#fff" fill-rule="evenodd"/><path id="squa_circ-184" data-name="squa circ" d="M89.22,86A2.22,2.22,0,1,1,87,88.23,2.21,2.21,0,0,1,89.22,86Zm0,1.14-1.11,1.1,1.06,1.06,1.11-1.11Z" fill="#fff" fill-rule="evenodd"/></g><g id="back_c4-6" data-name="back c4"><g id="back_c5-35" data-name="back c5"><path id="squa_circ-185" data-name="squa circ" d="M131.76,93.1a2.22,2.22,0,1,1-2.21,2.22A2.21,2.21,0,0,1,131.76,93.1Zm0,1.14-1.11,1.1,1.06,1.06,1.11-1.11Z" fill="#fff" fill-rule="evenodd"/><path id="squa_circ-186" data-name="squa circ" d="M124.67,93.1a2.22,2.22,0,1,1-2.21,2.22A2.21,2.21,0,0,1,124.67,93.1Zm0,1.14-1.11,1.1,1.06,1.06,1.11-1.11Z" fill="#fff" fill-rule="evenodd"/><path id="squa_circ-187" data-name="squa circ" d="M117.58,93.1a2.22,2.22,0,1,1-2.21,2.22A2.21,2.21,0,0,1,117.58,93.1Zm0,1.14-1.11,1.1,1.06,1.06,1.11-1.11Z" fill="#fff" fill-rule="evenodd"/><path id="squa_circ-188" data-name="squa circ" d="M110.49,93.1a2.22,2.22,0,1,1-2.21,2.22A2.21,2.21,0,0,1,110.49,93.1Zm0,1.14-1.11,1.1,1.06,1.06,1.11-1.11Z" fill="#fff" fill-rule="evenodd"/></g><g id="back_c5-36" data-name="back c5"><path id="squa_circ-189" data-name="squa circ" d="M131.76,100.19a2.22,2.22,0,1,1-2.21,2.22A2.21,2.21,0,0,1,131.76,100.19Zm0,1.14-1.11,1.1,1.06,1.06,1.11-1.11Z" fill="#fff" fill-rule="evenodd"/><path id="squa_circ-190" data-name="squa circ" d="M124.67,100.19a2.22,2.22,0,1,1-2.21,2.22A2.21,2.21,0,0,1,124.67,100.19Zm0,1.14-1.11,1.1,1.06,1.06,1.11-1.11Z" fill="#fff" fill-rule="evenodd"/><path id="squa_circ-191" data-name="squa circ" d="M117.58,100.19a2.22,2.22,0,1,1-2.21,2.22A2.21,2.21,0,0,1,117.58,100.19Zm0,1.14-1.11,1.1,1.06,1.06,1.11-1.11Z" fill="#fff" fill-rule="evenodd"/><path id="squa_circ-192" data-name="squa circ" d="M110.49,100.19a2.22,2.22,0,1,1-2.21,2.22A2.21,2.21,0,0,1,110.49,100.19Zm0,1.14-1.11,1.1,1.06,1.06,1.11-1.11Z" fill="#fff" fill-rule="evenodd"/></g><g id="back_c5-37" data-name="back c5"><path id="squa_circ-193" data-name="squa circ" d="M131.76,107.28a2.22,2.22,0,1,1-2.21,2.22A2.21,2.21,0,0,1,131.76,107.28Zm0,1.14-1.11,1.1,1.06,1.06,1.11-1.11Z" fill="#fff" fill-rule="evenodd"/><path id="squa_circ-194" data-name="squa circ" d="M124.67,107.28a2.22,2.22,0,1,1-2.21,2.22A2.21,2.21,0,0,1,124.67,107.28Zm0,1.14-1.11,1.1,1.06,1.06,1.11-1.11Z" fill="#fff" fill-rule="evenodd"/><path id="squa_circ-195" data-name="squa circ" d="M117.58,107.28a2.22,2.22,0,1,1-2.21,2.22A2.21,2.21,0,0,1,117.58,107.28Zm0,1.14-1.11,1.1,1.06,1.06,1.11-1.11Z" fill="#fff" fill-rule="evenodd"/><path id="squa_circ-196" data-name="squa circ" d="M110.49,107.28a2.22,2.22,0,1,1-2.21,2.22A2.21,2.21,0,0,1,110.49,107.28Zm0,1.14-1.11,1.1,1.06,1.06,1.11-1.11Z" fill="#fff" fill-rule="evenodd"/></g><g id="back_c5-38" data-name="back c5"><path id="squa_circ-197" data-name="squa circ" d="M131.76,114.37a2.22,2.22,0,1,1-2.21,2.22A2.21,2.21,0,0,1,131.76,114.37Zm0,1.14-1.11,1.1,1.06,1.06,1.11-1.11Z" fill="#fff" fill-rule="evenodd"/><path id="squa_circ-198" data-name="squa circ" d="M124.67,114.37a2.22,2.22,0,1,1-2.21,2.22A2.21,2.21,0,0,1,124.67,114.37Zm0,1.14-1.11,1.1,1.06,1.06,1.11-1.11Z" fill="#fff" fill-rule="evenodd"/><path id="squa_circ-199" data-name="squa circ" d="M117.58,114.37a2.22,2.22,0,1,1-2.21,2.22A2.21,2.21,0,0,1,117.58,114.37Zm0,1.14-1.11,1.1,1.06,1.06,1.11-1.11Z" fill="#fff" fill-rule="evenodd"/><path id="squa_circ-200" data-name="squa circ" d="M110.49,114.37a2.22,2.22,0,1,1-2.21,2.22A2.21,2.21,0,0,1,110.49,114.37Zm0,1.14-1.11,1.1,1.06,1.06,1.11-1.11Z" fill="#fff" fill-rule="evenodd"/></g><g id="back_c5-39" data-name="back c5"><path id="squa_circ-201" data-name="squa circ" d="M131.76,121.46a2.22,2.22,0,1,1-2.21,2.22A2.21,2.21,0,0,1,131.76,121.46Zm0,1.14-1.11,1.1,1.06,1.06,1.11-1.11Z" fill="#fff" fill-rule="evenodd"/><path id="squa_circ-202" data-name="squa circ" d="M124.67,121.46a2.22,2.22,0,1,1-2.21,2.22A2.21,2.21,0,0,1,124.67,121.46Zm0,1.14-1.11,1.1,1.06,1.06,1.11-1.11Z" fill="#fff" fill-rule="evenodd"/><path id="squa_circ-203" data-name="squa circ" d="M117.58,121.46a2.22,2.22,0,1,1-2.21,2.22A2.21,2.21,0,0,1,117.58,121.46Zm0,1.14-1.11,1.1,1.06,1.06,1.11-1.11Z" fill="#fff" fill-rule="evenodd"/><path id="squa_circ-204" data-name="squa circ" d="M110.49,121.46a2.22,2.22,0,1,1-2.21,2.22A2.21,2.21,0,0,1,110.49,121.46Zm0,1.14-1.11,1.1,1.06,1.06,1.11-1.11Z" fill="#fff" fill-rule="evenodd"/></g></g><g id="back_c3-6" data-name="back c3"><path id="squa_circ-205" data-name="squa circ" d="M96.32,97.54a2.22,2.22,0,1,1,2.21-2.22A2.21,2.21,0,0,1,96.32,97.54Zm0-1.14,1.11-1.1-1.06-1.06-1.1,1.11Z" fill="#fff" fill-rule="evenodd"/><path id="squa_circ-206" data-name="squa circ" d="M103.41,104.63a2.22,2.22,0,1,1,2.21-2.22A2.21,2.21,0,0,1,103.41,104.63Zm0-1.14,1.11-1.1-1.06-1.06-1.11,1.11Z" fill="#fff" fill-rule="evenodd"/><path id="squa_circ-207" data-name="squa circ" d="M103.41,97.54a2.22,2.22,0,1,1,2.21-2.22A2.21,2.21,0,0,1,103.41,97.54Zm0-1.14,1.11-1.1-1.06-1.06-1.11,1.11Z" fill="#fff" fill-rule="evenodd"/></g><g id="back_c2-12" data-name="back c2"><path id="squa_circ-208" data-name="squa circ" d="M131.76,64.74A2.22,2.22,0,1,1,129.55,67,2.21,2.21,0,0,1,131.76,64.74Zm0,1.14L130.68,67,131.74,68l1.11-1.11Z" fill="#fff" fill-rule="evenodd"/><path id="squa_circ-209" data-name="squa circ" d="M124.67,64.74A2.22,2.22,0,1,1,122.46,67,2.21,2.21,0,0,1,124.67,64.74Zm0,1.14L123.59,67,124.65,68l1.11-1.11Z" fill="#fff" fill-rule="evenodd"/><path id="squa_circ-210" data-name="squa circ" d="M117.58,64.74A2.22,2.22,0,1,1,115.37,67,2.21,2.21,0,0,1,117.58,64.74Zm0,1.14L116.5,67,117.56,68l1.11-1.11Z" fill="#fff" fill-rule="evenodd"/></g><g id="back_c2-13" data-name="back c2"><path id="squa_circ-211" data-name="squa circ" d="M131.76,71.83a2.22,2.22,0,1,1-2.21,2.22A2.21,2.21,0,0,1,131.76,71.83Zm0,1.14-1.11,1.1,1.06,1.06L132.85,74Z" fill="#fff" fill-rule="evenodd"/><path id="squa_circ-212" data-name="squa circ" d="M124.67,71.83a2.22,2.22,0,1,1-2.21,2.22A2.21,2.21,0,0,1,124.67,71.83Zm0,1.14-1.11,1.1,1.06,1.06L125.76,74Z" fill="#fff" fill-rule="evenodd"/><path id="squa_circ-213" data-name="squa circ" d="M117.58,71.83a2.22,2.22,0,1,1-2.21,2.22A2.21,2.21,0,0,1,117.58,71.83Zm0,1.14-1.11,1.1,1.06,1.06L118.67,74Z" fill="#fff" fill-rule="evenodd"/></g><g id="back_c2-14" data-name="back c2"><path id="squa_circ-214" data-name="squa circ" d="M131.76,78.92a2.22,2.22,0,1,1-2.21,2.22A2.21,2.21,0,0,1,131.76,78.92Zm0,1.14-1.11,1.1,1.06,1.06,1.11-1.11Z" fill="#fff" fill-rule="evenodd"/><path id="squa_circ-215" data-name="squa circ" d="M124.67,78.92a2.22,2.22,0,1,1-2.21,2.22A2.21,2.21,0,0,1,124.67,78.92Zm0,1.14-1.11,1.1,1.06,1.06,1.11-1.11Z" fill="#fff" fill-rule="evenodd"/><path id="squa_circ-216" data-name="squa circ" d="M117.58,78.92a2.22,2.22,0,1,1-2.21,2.22A2.21,2.21,0,0,1,117.58,78.92Zm0,1.14-1.11,1.1,1.06,1.06,1.11-1.11Z" fill="#fff" fill-rule="evenodd"/></g><g id="back_c2-15" data-name="back c2"><path id="squa_circ-217" data-name="squa circ" d="M131.76,86a2.22,2.22,0,1,1-2.21,2.22A2.21,2.21,0,0,1,131.76,86Zm0,1.14-1.11,1.1,1.06,1.06,1.11-1.11Z" fill="#fff" fill-rule="evenodd"/><path id="squa_circ-218" data-name="squa circ" d="M124.67,86a2.22,2.22,0,1,1-2.21,2.22A2.21,2.21,0,0,1,124.67,86Zm0,1.14-1.11,1.1,1.06,1.06,1.11-1.11Z" fill="#fff" fill-rule="evenodd"/><path id="squa_circ-219" data-name="squa circ" d="M117.58,86a2.22,2.22,0,1,1-2.21,2.22A2.21,2.21,0,0,1,117.58,86Zm0,1.14-1.11,1.1,1.06,1.06,1.11-1.11Z" fill="#fff" fill-rule="evenodd"/></g></g><rect x="107.33" y="120.39" width="28.39" height="6.6" fill="#f0516e"/><g id="back_c1-4" data-name="back c1"><g id="back_c2-16" data-name="back c2"><path id="squa_circ-220" data-name="squa circ" d="M131.76,189.71a2.22,2.22,0,1,0-2.21-2.22A2.21,2.21,0,0,0,131.76,189.71Zm0-1.14-1.11-1.1,1.06-1.06,1.11,1.11Z" fill="#fff" fill-rule="evenodd"/><path id="squa_circ-221" data-name="squa circ" d="M124.67,189.71a2.22,2.22,0,1,0-2.21-2.22A2.21,2.21,0,0,0,124.67,189.71Zm0-1.14-1.11-1.1,1.06-1.06,1.11,1.11Z" fill="#fff" fill-rule="evenodd"/><path id="squa_circ-222" data-name="squa circ" d="M117.58,189.71a2.22,2.22,0,1,0-2.21-2.22A2.21,2.21,0,0,0,117.58,189.71Zm0-1.14-1.11-1.1,1.06-1.06,1.11,1.11Z" fill="#fff" fill-rule="evenodd"/></g><g id="back_c3-7" data-name="back c3"><path id="squa_circ-223" data-name="squa circ" d="M124.67,196.8a2.22,2.22,0,1,0-2.21-2.22A2.21,2.21,0,0,0,124.67,196.8Zm0-1.14-1.11-1.1,1.06-1.06,1.11,1.11Z" fill="#fff" fill-rule="evenodd"/><path id="squa_circ-224" data-name="squa circ" d="M117.58,203.89a2.22,2.22,0,1,0-2.21-2.22A2.21,2.21,0,0,0,117.58,203.89Zm0-1.14-1.11-1.1,1.06-1.06,1.11,1.11Z" fill="#fff" fill-rule="evenodd"/><path id="squa_circ-225" data-name="squa circ" d="M117.58,196.8a2.22,2.22,0,1,0-2.21-2.22A2.21,2.21,0,0,0,117.58,196.8Zm0-1.14-1.11-1.1,1.06-1.06,1.11,1.11Z" fill="#fff" fill-rule="evenodd"/></g><g id="back_c4-7" data-name="back c4"><g id="back_c5-40" data-name="back c5"><path id="squa_circ-226" data-name="squa circ" d="M110.49,211a2.22,2.22,0,1,0-2.21-2.22A2.21,2.21,0,0,0,110.49,211Zm0-1.14-1.11-1.1,1.06-1.06,1.11,1.11Z" fill="#fff" fill-rule="evenodd"/><path id="squa_circ-227" data-name="squa circ" d="M103.4,211a2.22,2.22,0,1,0-2.2-2.22A2.21,2.21,0,0,0,103.4,211Zm0-1.14-1.11-1.1,1.06-1.06,1.11,1.11Z" fill="#fff" fill-rule="evenodd"/><path id="squa_circ-228" data-name="squa circ" d="M96.31,211a2.22,2.22,0,1,0-2.2-2.22A2.21,2.21,0,0,0,96.31,211Zm0-1.14-1.11-1.1,1.06-1.06,1.11,1.11Z" fill="#fff" fill-rule="evenodd"/><path id="squa_circ-229" data-name="squa circ" d="M89.22,211a2.22,2.22,0,1,0-2.2-2.22A2.21,2.21,0,0,0,89.22,211Zm0-1.14-1.11-1.1,1.06-1.06,1.11,1.11Z" fill="#fff" fill-rule="evenodd"/></g><g id="back_c5-41" data-name="back c5"><path id="squa_circ-230" data-name="squa circ" d="M110.49,203.89a2.22,2.22,0,1,0-2.21-2.22A2.21,2.21,0,0,0,110.49,203.89Zm0-1.14-1.11-1.1,1.06-1.06,1.11,1.11Z" fill="#fff" fill-rule="evenodd"/><path id="squa_circ-231" data-name="squa circ" d="M103.4,203.89a2.22,2.22,0,1,0-2.2-2.22A2.21,2.21,0,0,0,103.4,203.89Zm0-1.14-1.11-1.1,1.06-1.06,1.11,1.11Z" fill="#fff" fill-rule="evenodd"/><path id="squa_circ-232" data-name="squa circ" d="M96.31,203.89a2.22,2.22,0,1,0-2.2-2.22A2.21,2.21,0,0,0,96.31,203.89Zm0-1.14-1.11-1.1,1.06-1.06,1.11,1.11Z" fill="#fff" fill-rule="evenodd"/><path id="squa_circ-233" data-name="squa circ" d="M89.22,203.89a2.22,2.22,0,1,0-2.2-2.22A2.21,2.21,0,0,0,89.22,203.89Zm0-1.14-1.11-1.1,1.06-1.06,1.11,1.11Z" fill="#fff" fill-rule="evenodd"/></g><g id="back_c5-42" data-name="back c5"><path id="squa_circ-234" data-name="squa circ" d="M110.49,196.8a2.22,2.22,0,1,0-2.21-2.22A2.21,2.21,0,0,0,110.49,196.8Zm0-1.14-1.11-1.1,1.06-1.06,1.11,1.11Z" fill="#fff" fill-rule="evenodd"/><path id="squa_circ-235" data-name="squa circ" d="M103.4,196.8a2.22,2.22,0,1,0-2.21-2.22A2.21,2.21,0,0,0,103.4,196.8Zm0-1.14-1.11-1.1,1.06-1.06,1.11,1.11Z" fill="#fff" fill-rule="evenodd"/><path id="squa_circ-236" data-name="squa circ" d="M96.31,196.8a2.22,2.22,0,1,0-2.2-2.22A2.21,2.21,0,0,0,96.31,196.8Zm0-1.14-1.11-1.1,1.06-1.06,1.11,1.11Z" fill="#fff" fill-rule="evenodd"/><path id="squa_circ-237" data-name="squa circ" d="M89.22,196.8a2.22,2.22,0,1,0-2.2-2.22A2.21,2.21,0,0,0,89.22,196.8Zm0-1.14-1.11-1.1,1.06-1.06,1.11,1.11Z" fill="#fff" fill-rule="evenodd"/></g><g id="back_c5-43" data-name="back c5"><path id="squa_circ-238" data-name="squa circ" d="M110.49,189.71a2.22,2.22,0,1,0-2.21-2.22A2.21,2.21,0,0,0,110.49,189.71Zm0-1.14-1.11-1.1,1.06-1.06,1.11,1.11Z" fill="#fff" fill-rule="evenodd"/><path id="squa_circ-239" data-name="squa circ" d="M103.4,189.71a2.22,2.22,0,1,0-2.2-2.22A2.21,2.21,0,0,0,103.4,189.71Zm0-1.14-1.11-1.1,1.06-1.06,1.11,1.11Z" fill="#fff" fill-rule="evenodd"/><path id="squa_circ-240" data-name="squa circ" d="M96.31,189.71a2.22,2.22,0,1,0-2.2-2.22A2.21,2.21,0,0,0,96.31,189.71Zm0-1.14-1.11-1.1,1.06-1.06,1.11,1.11Z" fill="#fff" fill-rule="evenodd"/><path id="squa_circ-241" data-name="squa circ" d="M89.22,189.71a2.22,2.22,0,1,0-2.2-2.22A2.21,2.21,0,0,0,89.22,189.71Zm0-1.14-1.11-1.1,1.06-1.06,1.11,1.11Z" fill="#fff" fill-rule="evenodd"/></g><g id="back_c5-44" data-name="back c5"><path id="squa_circ-242" data-name="squa circ" d="M110.49,182.62a2.22,2.22,0,1,0-2.21-2.22A2.21,2.21,0,0,0,110.49,182.62Zm0-1.14-1.11-1.1,1.06-1.06,1.11,1.11Z" fill="#fff" fill-rule="evenodd"/><path id="squa_circ-243" data-name="squa circ" d="M103.4,182.62a2.22,2.22,0,1,0-2.21-2.22A2.21,2.21,0,0,0,103.4,182.62Zm0-1.14-1.11-1.1,1.06-1.06,1.11,1.11Z" fill="#fff" fill-rule="evenodd"/><path id="squa_circ-244" data-name="squa circ" d="M96.31,182.62a2.22,2.22,0,1,0-2.2-2.22A2.21,2.21,0,0,0,96.31,182.62Zm0-1.14-1.11-1.1,1.06-1.06,1.11,1.11Z" fill="#fff" fill-rule="evenodd"/><path id="squa_circ-245" data-name="squa circ" d="M89.22,182.62A2.22,2.22,0,1,0,87,180.4,2.21,2.21,0,0,0,89.22,182.62Zm0-1.14-1.11-1.1,1.06-1.06,1.11,1.11Z" fill="#fff" fill-rule="evenodd"/></g></g><g id="back_c5-45" data-name="back c5"><path id="squa_circ-246" data-name="squa circ" d="M110.49,175.53a2.22,2.22,0,1,0-2.21-2.22A2.21,2.21,0,0,0,110.49,175.53Zm0-1.14-1.11-1.1,1.06-1.06,1.11,1.11Z" fill="#fff" fill-rule="evenodd"/><path id="squa_circ-247" data-name="squa circ" d="M103.4,175.53a2.22,2.22,0,1,0-2.2-2.22A2.21,2.21,0,0,0,103.4,175.53Zm0-1.14-1.11-1.1,1.06-1.06,1.11,1.11Z" fill="#fff" fill-rule="evenodd"/><path id="squa_circ-248" data-name="squa circ" d="M96.31,175.53a2.22,2.22,0,1,0-2.2-2.22A2.21,2.21,0,0,0,96.31,175.53Zm0-1.14-1.11-1.1,1.06-1.06,1.11,1.11Z" fill="#fff" fill-rule="evenodd"/><path id="squa_circ-249" data-name="squa circ" d="M89.22,175.53a2.22,2.22,0,1,0-2.2-2.22A2.21,2.21,0,0,0,89.22,175.53Zm0-1.14-1.11-1.1,1.06-1.06,1.11,1.11Z" fill="#fff" fill-rule="evenodd"/></g><g id="back_c5-46" data-name="back c5"><path id="squa_circ-250" data-name="squa circ" d="M110.49,168.44a2.22,2.22,0,1,0-2.21-2.22A2.21,2.21,0,0,0,110.49,168.44Zm0-1.14-1.11-1.1,1.06-1.06,1.11,1.11Z" fill="#fff" fill-rule="evenodd"/><path id="squa_circ-251" data-name="squa circ" d="M103.4,168.44a2.22,2.22,0,1,0-2.21-2.22A2.21,2.21,0,0,0,103.4,168.44Zm0-1.14-1.11-1.1,1.06-1.06,1.11,1.11Z" fill="#fff" fill-rule="evenodd"/><path id="squa_circ-252" data-name="squa circ" d="M96.31,168.44a2.22,2.22,0,1,0-2.2-2.22A2.21,2.21,0,0,0,96.31,168.44Zm0-1.14-1.11-1.1,1.06-1.06,1.11,1.11Z" fill="#fff" fill-rule="evenodd"/><path id="squa_circ-253" data-name="squa circ" d="M89.22,168.44a2.22,2.22,0,1,0-2.2-2.22A2.21,2.21,0,0,0,89.22,168.44Zm0-1.14-1.11-1.1,1.06-1.06,1.11,1.11Z" fill="#fff" fill-rule="evenodd"/></g><g id="back_c5-47" data-name="back c5"><path id="squa_circ-254" data-name="squa circ" d="M110.49,161.35a2.22,2.22,0,1,0-2.21-2.22A2.21,2.21,0,0,0,110.49,161.35Zm0-1.14-1.11-1.1,1.06-1.06,1.11,1.11Z" fill="#fff" fill-rule="evenodd"/><path id="squa_circ-255" data-name="squa circ" d="M103.4,161.35a2.22,2.22,0,1,0-2.2-2.22A2.21,2.21,0,0,0,103.4,161.35Zm0-1.14-1.11-1.1,1.06-1.06,1.11,1.11Z" fill="#fff" fill-rule="evenodd"/><path id="squa_circ-256" data-name="squa circ" d="M96.31,161.35a2.22,2.22,0,1,0-2.2-2.22A2.21,2.21,0,0,0,96.31,161.35Zm0-1.14-1.11-1.1,1.06-1.06,1.11,1.11Z" fill="#fff" fill-rule="evenodd"/><path id="squa_circ-257" data-name="squa circ" d="M89.22,161.35a2.22,2.22,0,1,0-2.2-2.22A2.21,2.21,0,0,0,89.22,161.35Zm0-1.14-1.11-1.1,1.06-1.06,1.11,1.11Z" fill="#fff" fill-rule="evenodd"/></g><g id="back_c4-8" data-name="back c4"><g id="back_c5-48" data-name="back c5"><path id="squa_circ-258" data-name="squa circ" d="M131.76,154.26a2.22,2.22,0,1,0-2.21-2.22A2.21,2.21,0,0,0,131.76,154.26Zm0-1.14-1.11-1.1,1.06-1.06,1.11,1.11Z" fill="#fff" fill-rule="evenodd"/><path id="squa_circ-259" data-name="squa circ" d="M124.67,154.26a2.22,2.22,0,1,0-2.21-2.22A2.21,2.21,0,0,0,124.67,154.26Zm0-1.14-1.11-1.1,1.06-1.06,1.11,1.11Z" fill="#fff" fill-rule="evenodd"/><path id="squa_circ-260" data-name="squa circ" d="M117.58,154.26a2.22,2.22,0,1,0-2.21-2.22A2.21,2.21,0,0,0,117.58,154.26Zm0-1.14L116.5,152l1.06-1.06,1.11,1.11Z" fill="#fff" fill-rule="evenodd"/><path id="squa_circ-261" data-name="squa circ" d="M110.49,154.26a2.22,2.22,0,1,0-2.21-2.22A2.21,2.21,0,0,0,110.49,154.26Zm0-1.14-1.11-1.1,1.06-1.06,1.11,1.11Z" fill="#fff" fill-rule="evenodd"/></g><g id="back_c5-49" data-name="back c5"><path id="squa_circ-262" data-name="squa circ" d="M131.76,147.17a2.22,2.22,0,1,0-2.21-2.22A2.21,2.21,0,0,0,131.76,147.17Zm0-1.14-1.11-1.1,1.06-1.06,1.11,1.11Z" fill="#fff" fill-rule="evenodd"/><path id="squa_circ-263" data-name="squa circ" d="M124.67,147.17a2.22,2.22,0,1,0-2.21-2.22A2.21,2.21,0,0,0,124.67,147.17Zm0-1.14-1.11-1.1,1.06-1.06,1.11,1.11Z" fill="#fff" fill-rule="evenodd"/><path id="squa_circ-264" data-name="squa circ" d="M117.58,147.17a2.22,2.22,0,1,0-2.21-2.22A2.21,2.21,0,0,0,117.58,147.17Zm0-1.14-1.11-1.1,1.06-1.06,1.11,1.11Z" fill="#fff" fill-rule="evenodd"/><path id="squa_circ-265" data-name="squa circ" d="M110.49,147.17a2.22,2.22,0,1,0-2.21-2.22A2.21,2.21,0,0,0,110.49,147.17Zm0-1.14-1.11-1.1,1.06-1.06,1.11,1.11Z" fill="#fff" fill-rule="evenodd"/></g><g id="back_c5-50" data-name="back c5"><path id="squa_circ-266" data-name="squa circ" d="M131.76,140.08a2.22,2.22,0,1,0-2.21-2.22A2.21,2.21,0,0,0,131.76,140.08Zm0-1.14-1.11-1.1,1.06-1.06,1.11,1.11Z" fill="#fff" fill-rule="evenodd"/><path id="squa_circ-267" data-name="squa circ" d="M124.67,140.08a2.22,2.22,0,1,0-2.21-2.22A2.21,2.21,0,0,0,124.67,140.08Zm0-1.14-1.11-1.1,1.06-1.06,1.11,1.11Z" fill="#fff" fill-rule="evenodd"/><path id="squa_circ-268" data-name="squa circ" d="M117.58,140.08a2.22,2.22,0,1,0-2.21-2.22A2.21,2.21,0,0,0,117.58,140.08Zm0-1.14-1.11-1.1,1.06-1.06,1.11,1.11Z" fill="#fff" fill-rule="evenodd"/><path id="squa_circ-269" data-name="squa circ" d="M110.49,140.08a2.22,2.22,0,1,0-2.21-2.22A2.21,2.21,0,0,0,110.49,140.08Zm0-1.14-1.11-1.1,1.06-1.06,1.11,1.11Z" fill="#fff" fill-rule="evenodd"/></g><g id="back_c5-51" data-name="back c5"><path id="squa_circ-270" data-name="squa circ" d="M131.76,133a2.22,2.22,0,1,0-2.21-2.22A2.21,2.21,0,0,0,131.76,133Zm0-1.14-1.11-1.1,1.06-1.06,1.11,1.11Z" fill="#fff" fill-rule="evenodd"/><path id="squa_circ-271" data-name="squa circ" d="M124.67,133a2.22,2.22,0,1,0-2.21-2.22A2.21,2.21,0,0,0,124.67,133Zm0-1.14-1.11-1.1,1.06-1.06,1.11,1.11Z" fill="#fff" fill-rule="evenodd"/><path id="squa_circ-272" data-name="squa circ" d="M117.58,133a2.22,2.22,0,1,0-2.21-2.22A2.21,2.21,0,0,0,117.58,133Zm0-1.14-1.11-1.1,1.06-1.06,1.11,1.11Z" fill="#fff" fill-rule="evenodd"/><path id="squa_circ-273" data-name="squa circ" d="M110.49,133a2.22,2.22,0,1,0-2.21-2.22A2.21,2.21,0,0,0,110.49,133Zm0-1.14-1.11-1.1,1.06-1.06,1.11,1.11Z" fill="#fff" fill-rule="evenodd"/></g><g id="back_c5-52" data-name="back c5"><path id="squa_circ-274" data-name="squa circ" d="M131.76,125.9a2.22,2.22,0,1,0-2.21-2.22A2.21,2.21,0,0,0,131.76,125.9Zm0-1.14-1.11-1.1,1.06-1.06,1.11,1.11Z" fill="#fff" fill-rule="evenodd"/><path id="squa_circ-275" data-name="squa circ" d="M124.67,125.9a2.22,2.22,0,1,0-2.21-2.22A2.21,2.21,0,0,0,124.67,125.9Zm0-1.14-1.11-1.1,1.06-1.06,1.11,1.11Z" fill="#fff" fill-rule="evenodd"/><path id="squa_circ-276" data-name="squa circ" d="M117.58,125.9a2.22,2.22,0,1,0-2.21-2.22A2.21,2.21,0,0,0,117.58,125.9Zm0-1.14-1.11-1.1,1.06-1.06,1.11,1.11Z" fill="#fff" fill-rule="evenodd"/><path id="squa_circ-277" data-name="squa circ" d="M110.49,125.9a2.22,2.22,0,1,0-2.21-2.22A2.21,2.21,0,0,0,110.49,125.9Zm0-1.14-1.11-1.1,1.06-1.06,1.11,1.11Z" fill="#fff" fill-rule="evenodd"/></g></g><g id="back_c3-8" data-name="back c3"><path id="squa_circ-278" data-name="squa circ" d="M96.32,149.82A2.22,2.22,0,1,0,98.53,152,2.21,2.21,0,0,0,96.32,149.82Zm0,1.14,1.11,1.1-1.06,1.06L95.24,152Z" fill="#fff" fill-rule="evenodd"/><path id="squa_circ-279" data-name="squa circ" d="M103.41,142.73a2.22,2.22,0,1,0,2.21,2.22A2.21,2.21,0,0,0,103.41,142.73Zm0,1.14,1.11,1.1L103.43,146l-1.11-1.11Z" fill="#fff" fill-rule="evenodd"/><path id="squa_circ-280" data-name="squa circ" d="M103.41,149.82a2.22,2.22,0,1,0,2.21,2.22A2.21,2.21,0,0,0,103.41,149.82Zm0,1.14,1.11,1.1-1.06,1.06L102.32,152Z" fill="#fff" fill-rule="evenodd"/></g><g id="back_c2-17" data-name="back c2"><path id="squa_circ-281" data-name="squa circ" d="M131.76,182.62a2.22,2.22,0,1,0-2.21-2.22A2.21,2.21,0,0,0,131.76,182.62Zm0-1.14-1.11-1.1,1.06-1.06,1.11,1.11Z" fill="#fff" fill-rule="evenodd"/><path id="squa_circ-282" data-name="squa circ" d="M124.67,182.62a2.22,2.22,0,1,0-2.21-2.22A2.21,2.21,0,0,0,124.67,182.62Zm0-1.14-1.11-1.1,1.06-1.06,1.11,1.11Z" fill="#fff" fill-rule="evenodd"/><path id="squa_circ-283" data-name="squa circ" d="M117.58,182.62a2.22,2.22,0,1,0-2.21-2.22A2.21,2.21,0,0,0,117.58,182.62Zm0-1.14-1.11-1.1,1.06-1.06,1.11,1.11Z" fill="#fff" fill-rule="evenodd"/></g><g id="back_c2-18" data-name="back c2"><path id="squa_circ-284" data-name="squa circ" d="M131.76,175.53a2.22,2.22,0,1,0-2.21-2.22A2.21,2.21,0,0,0,131.76,175.53Zm0-1.14-1.11-1.1,1.06-1.06,1.11,1.11Z" fill="#fff" fill-rule="evenodd"/><path id="squa_circ-285" data-name="squa circ" d="M124.67,175.53a2.22,2.22,0,1,0-2.21-2.22A2.21,2.21,0,0,0,124.67,175.53Zm0-1.14-1.11-1.1,1.06-1.06,1.11,1.11Z" fill="#fff" fill-rule="evenodd"/><path id="squa_circ-286" data-name="squa circ" d="M117.58,175.53a2.22,2.22,0,1,0-2.21-2.22A2.21,2.21,0,0,0,117.58,175.53Zm0-1.14-1.11-1.1,1.06-1.06,1.11,1.11Z" fill="#fff" fill-rule="evenodd"/></g><g id="back_c2-19" data-name="back c2"><path id="squa_circ-287" data-name="squa circ" d="M131.76,168.44a2.22,2.22,0,1,0-2.21-2.22A2.21,2.21,0,0,0,131.76,168.44Zm0-1.14-1.11-1.1,1.06-1.06,1.11,1.11Z" fill="#fff" fill-rule="evenodd"/><path id="squa_circ-288" data-name="squa circ" d="M124.67,168.44a2.22,2.22,0,1,0-2.21-2.22A2.21,2.21,0,0,0,124.67,168.44Zm0-1.14-1.11-1.1,1.06-1.06,1.11,1.11Z" fill="#fff" fill-rule="evenodd"/><path id="squa_circ-289" data-name="squa circ" d="M117.58,168.44a2.22,2.22,0,1,0-2.21-2.22A2.21,2.21,0,0,0,117.58,168.44Zm0-1.14-1.11-1.1,1.06-1.06,1.11,1.11Z" fill="#fff" fill-rule="evenodd"/></g><g id="back_c2-20" data-name="back c2"><path id="squa_circ-290" data-name="squa circ" d="M131.76,161.35a2.22,2.22,0,1,0-2.21-2.22A2.21,2.21,0,0,0,131.76,161.35Zm0-1.14-1.11-1.1,1.06-1.06,1.11,1.11Z" fill="#fff" fill-rule="evenodd"/><path id="squa_circ-291" data-name="squa circ" d="M124.67,161.35a2.22,2.22,0,1,0-2.21-2.22A2.21,2.21,0,0,0,124.67,161.35Zm0-1.14-1.11-1.1,1.06-1.06,1.11,1.11Z" fill="#fff" fill-rule="evenodd"/><path id="squa_circ-292" data-name="squa circ" d="M117.58,161.35a2.22,2.22,0,1,0-2.21-2.22A2.21,2.21,0,0,0,117.58,161.35Zm0-1.14-1.11-1.1,1.06-1.06,1.11,1.11Z" fill="#fff" fill-rule="evenodd"/></g></g><path id="center_deco" data-name="center deco" d="M85.49,97.77l-1.61.58a8.16,8.16,0,0,0-2.44,1.79c-.56.8-.64.8-1.51.2-1.38-1-1.66-.79-1.44.9.2,1.47.16,1.52-1,1.52-1.39,0-3,1.12-4.24,2.94-1.67,2.47-.64,7.28,1.7,9.12,1.48,1.17,2.11.6.74-.85-1.47-1-2.59-4.67-2-4.67a3.46,3.46,0,0,1,1,.49c.65.4.92.37,1.49-.2s.62-.69,0-.69c-1.15,0-1.54-2.43-.59-3.69a5.28,5.28,0,0,1,3.45-1.51c1.74,0,2.79,2.68,1.21,3.09-.44.11-.8.37-.8.57,0,.64,1.27.88,2,.4,1-.62,1-.63,1.54.69a7.81,7.81,0,0,0,1.6,2.22l.72.7v-2.61a8,8,0,0,1-.25-1.26c0-.68-3-3.8-3.53-3.8a3.52,3.52,0,0,1-1.35-1l-1-1.05,1.29.29c1.14.24,1.35.15,1.68-.72A3.67,3.67,0,0,1,85.49,99Zm-.2,2A3.07,3.07,0,0,0,82.93,103l.25,1,1.63-1.47a5.18,5.18,0,0,0,.68-.78v-2A.59.59,0,0,0,85.29,99.75ZM79.68,111c-.29-.07-.49.19-.49.83a1.75,1.75,0,0,1-.4,1.26,2.44,2.44,0,0,0-.83,1.44l.06.83,3.07-1,3.3-1.13c.4-.14.21-.32-.56-.52a2.52,2.52,0,0,0-1.89.15c-.6.38-.8.28-1.23-.62C80.35,111.5,80,111.09,79.68,111Zm-4.32.29c-.8,0-.71.31.43,1.67a4.2,4.2,0,0,1,1,1.9c0,.94-1.5,2.83-2.23,2.83s-.73.76,0,1c.36.14.6.74.6,1.5a3,3,0,0,0,.48,1.76c.38.38.64-.15,1.19-2.42a26.69,26.69,0,0,0,.71-4.54C77.59,113.3,76.41,111.3,75.36,111.3Zm-3.78.46a4.7,4.7,0,0,0-1.6,1.11,4.52,4.52,0,0,0-.91,2.9,7,7,0,0,0,.31,2.49c.3.65.22.73-.51.54-1.11-.29-1.6.46-.73,1.09s.84,1-.54,2.4l-.95,1h1.1c0-.67,1.16-1,2.64-.63.85.22,1.21.44,1.2.63h3l-1.09-.9c-.89-.73-1-1-.6-1.42s.36-.62-.29-1.1-.74-.62-.1-1,1-1.75.3-2.15c-.22-.14-.4,0-.4.39a1,1,0,0,1-1.8.61,2.15,2.15,0,0,1-.59-1.48c0-1.14,1-3.32,1.6-3.32.22,0,.39-.27.39-.6S71.87,111.67,71.58,111.76Zm13.91,3.3-.55.84a4.82,4.82,0,0,0-.63,2.42c0,1.49-.88,2-1.3.64-.24-.74-1.27-1.41-2.89-1.86-.83-.23-.85-.17-.4,1a3.85,3.85,0,0,0,1.57,1.82c1.57.81,1.43,1.75-.25,1.75a4.47,4.47,0,0,0-2.41.84l-.94.73h4.15c0-.13.27-.28,1.14-.53,1.24-.36,1.67-.73,2-1.65.2-.66.46-1.46.56-1.78Zm-1.66,5.44a.57.57,0,0,1,.56.54c0,.68-1.08,1.16-1.41.62a.81.81,0,0,1,0-.77A.89.89,0,0,1,83.83,120.5Z" fill="#fff"/><path id="center_deco-2" data-name="center deco" d="M85.46,97.77l1.61.58a8.16,8.16,0,0,1,2.44,1.79c.56.8.64.8,1.51.2,1.38-1,1.66-.79,1.44.9-.2,1.47-.16,1.52,1,1.52,1.39,0,3,1.12,4.24,2.94,1.68,2.47.64,7.28-1.7,9.12-1.48,1.17-2.11.6-.74-.85,1.47-1,2.59-4.67,2-4.67a3.46,3.46,0,0,0-1,.49c-.65.4-.92.37-1.49-.2s-.62-.69-.05-.69c1.15,0,1.54-2.43.59-3.69a5.28,5.28,0,0,0-3.45-1.51c-1.74,0-2.79,2.68-1.21,3.09.44.11.8.37.8.57,0,.64-1.27.88-2,.4-1-.62-1-.63-1.54.69a7.81,7.81,0,0,1-1.6,2.22l-.72.7v-2.61a8,8,0,0,0,.25-1.26c.05-.68,3-3.8,3.53-3.8a3.52,3.52,0,0,0,1.35-1l1-1.05-1.29.29c-1.14.24-1.35.15-1.68-.72A3.67,3.67,0,0,0,85.46,99Zm.2,2A3.07,3.07,0,0,1,88,103l-.25,1-1.63-1.47a5.18,5.18,0,0,1-.68-.78v-2A.59.59,0,0,1,85.66,99.75ZM91.27,111c.29-.07.49.19.49.83a1.75,1.75,0,0,0,.4,1.26,2.44,2.44,0,0,1,.83,1.44l-.06.83-3.07-1-3.3-1.13c-.4-.14-.21-.32.56-.52a2.52,2.52,0,0,1,1.89.15c.6.38.8.28,1.23-.62C90.6,111.5,91,111.09,91.27,111Zm4.32.29c.8,0,.71.31-.43,1.67a4.2,4.2,0,0,0-1,1.9c0,.94,1.5,2.83,2.23,2.83s.73.76,0,1c-.36.14-.6.74-.6,1.5a3,3,0,0,1-.48,1.76c-.38.38-.64-.15-1.19-2.42a26.69,26.69,0,0,1-.71-4.54C93.36,113.3,94.54,111.3,95.59,111.3Zm3.79.46a4.7,4.7,0,0,1,1.6,1.11,4.52,4.52,0,0,1,.91,2.9,7,7,0,0,1-.31,2.49c-.3.65-.22.73.51.54,1.11-.29,1.6.46.73,1.09s-.84,1,.54,2.4l.94,1h-1.09c0-.67-1.16-1-2.64-.63-.85.22-1.21.44-1.2.63h-3l1.09-.9c.89-.73,1-1,.6-1.42s-.36-.62.29-1.1.75-.62.1-1-.95-1.75-.3-2.15c.22-.14.4,0,.4.39a1.05,1.05,0,0,0,1.81.61,2.15,2.15,0,0,0,.59-1.48c0-1.14-1-3.32-1.6-3.32-.22,0-.4-.27-.4-.6S99.09,111.67,99.38,111.76Zm-13.92,3.3.55.84a4.82,4.82,0,0,1,.63,2.42c0,1.49.88,2,1.3.64.24-.74,1.27-1.41,2.89-1.86.83-.23.85-.17.4,1a3.85,3.85,0,0,1-1.57,1.82c-1.57.81-1.43,1.75.25,1.75a4.47,4.47,0,0,1,2.41.84l.94.73H89.11c0-.13-.27-.28-1.14-.53-1.24-.36-1.67-.73-2-1.65-.2-.66-.46-1.46-.56-1.78Zm1.66,5.44a.57.57,0,0,0-.56.54c0,.68,1.08,1.16,1.41.62a.81.81,0,0,0,0-.77A.89.89,0,0,0,87.12,120.5Z" fill="#fff"/><path id="center_deco-3" data-name="center deco" d="M85.49,148.71l-1.61-.58a8.16,8.16,0,0,1-2.44-1.79c-.56-.79-.64-.79-1.51-.2-1.38,1-1.66.79-1.44-.89.2-1.47.16-1.52-1-1.52-1.39,0-3-1.12-4.24-2.94-1.67-2.47-.64-7.28,1.7-9.12,1.48-1.17,2.11-.6.74.85-1.47,1-2.59,4.67-2,4.67a3.46,3.46,0,0,0,1-.49c.65-.4.92-.37,1.49.2s.62.69,0,.69c-1.15,0-1.54,2.43-.59,3.69a5.28,5.28,0,0,0,3.45,1.51c1.74,0,2.79-2.68,1.21-3.09-.44-.11-.8-.37-.8-.57,0-.64,1.27-.88,2-.4,1,.62,1,.63,1.54-.69a7.81,7.81,0,0,1,1.6-2.22l.72-.7v2.61a8,8,0,0,0-.25,1.26c0,.68-3,3.8-3.53,3.8a3.52,3.52,0,0,0-1.35,1.05l-1,1,1.29-.29c1.14-.24,1.35-.15,1.68.72a3.68,3.68,0,0,0,3.13,2.17Zm-.2-2a3.06,3.06,0,0,1-2.36-3.26l.25-1L84.81,144a5.18,5.18,0,0,1,.68.78v2A.59.59,0,0,1,85.29,146.73Zm-5.61-11.25c-.29.07-.49-.19-.49-.83a1.75,1.75,0,0,0-.4-1.26A2.44,2.44,0,0,1,78,132l.06-.83,3.07,1,3.3,1.13c.4.14.21.32-.56.52a2.52,2.52,0,0,1-1.89-.15c-.6-.38-.8-.28-1.23.62C80.35,135,80,135.4,79.68,135.48Zm-4.32-.29c-.8,0-.71-.31.43-1.67a4.2,4.2,0,0,0,1-1.9c0-.94-1.5-2.83-2.23-2.83s-.73-.76,0-1c.36-.14.6-.75.6-1.51a3,3,0,0,1,.48-1.76c.38-.38.64.15,1.19,2.42a26.93,26.93,0,0,1,.71,4.55C77.59,133.19,76.41,135.19,75.36,135.19Zm-3.78-.46a4.7,4.7,0,0,1-1.6-1.11,4.52,4.52,0,0,1-.91-2.9,7,7,0,0,1,.31-2.49c.3-.65.22-.73-.51-.54-1.11.29-1.6-.46-.73-1.1s.84-1-.54-2.4l-.95-1h1.1c0,.67,1.16,1,2.64.63.85-.22,1.21-.44,1.2-.63h3l-1.09.9c-.89.73-1,1-.6,1.42s.36.62-.29,1.1-.74.63-.1,1,1,1.75.3,2.15c-.22.14-.4,0-.4-.39a1,1,0,0,0-1.8-.61,2.15,2.15,0,0,0-.59,1.48c0,1.14,1,3.32,1.6,3.32.22,0,.39.27.39.6S71.87,134.82,71.58,134.73Zm13.91-3.3-.55-.84a4.82,4.82,0,0,1-.63-2.42c0-1.5-.88-2-1.3-.64-.24.74-1.27,1.41-2.89,1.86-.83.23-.85.17-.4-1a3.88,3.88,0,0,1,1.57-1.83c1.57-.81,1.43-1.75-.25-1.75a4.47,4.47,0,0,1-2.41-.84l-.94-.73h4.15c0,.13.27.28,1.14.53,1.24.36,1.67.73,2,1.65.2.66.46,1.46.56,1.79ZM83.83,126a.57.57,0,0,0,.56-.54c0-.68-1.08-1.16-1.41-.62a.81.81,0,0,0,0,.77A.89.89,0,0,0,83.83,126Z" fill="#fff"/><path id="center_deco-4" data-name="center deco" d="M85.46,148.71l1.61-.58a8.16,8.16,0,0,0,2.44-1.79c.56-.79.64-.79,1.51-.2,1.38,1,1.66.79,1.44-.89-.2-1.47-.16-1.52,1-1.52,1.39,0,3-1.12,4.24-2.94,1.68-2.47.64-7.28-1.7-9.12-1.48-1.17-2.11-.6-.74.85,1.47,1,2.59,4.67,2,4.67a3.46,3.46,0,0,1-1-.49c-.65-.4-.92-.37-1.49.2s-.62.69-.05.69c1.15,0,1.54,2.43.59,3.69a5.28,5.28,0,0,1-3.45,1.51c-1.74,0-2.79-2.68-1.21-3.09.44-.11.8-.37.8-.57,0-.64-1.27-.88-2-.4-1,.62-1,.63-1.54-.69a7.81,7.81,0,0,0-1.6-2.22l-.72-.7v2.61a8,8,0,0,1,.25,1.26c.05.68,3,3.8,3.53,3.8a3.52,3.52,0,0,1,1.35,1.05l1,1-1.29-.29c-1.14-.24-1.35-.15-1.68.72a3.68,3.68,0,0,1-3.13,2.17Zm.2-2A3.06,3.06,0,0,0,88,143.47l-.25-1L86.14,144a5.18,5.18,0,0,0-.68.78v2A.59.59,0,0,0,85.66,146.73Zm5.61-11.25c.29.07.49-.19.49-.83a1.75,1.75,0,0,1,.4-1.26A2.44,2.44,0,0,0,93,132l-.06-.83-3.07,1-3.3,1.13c-.4.14-.21.32.56.52a2.52,2.52,0,0,0,1.89-.15c.6-.38.8-.28,1.23.62C90.6,135,91,135.4,91.27,135.48Zm4.32-.29c.8,0,.71-.31-.43-1.67a4.2,4.2,0,0,1-1-1.9c0-.94,1.5-2.83,2.23-2.83s.73-.76,0-1c-.36-.14-.6-.75-.6-1.51a3,3,0,0,0-.48-1.76c-.38-.38-.64.15-1.19,2.42a26.93,26.93,0,0,0-.71,4.55C93.36,133.19,94.54,135.19,95.59,135.19Zm3.79-.46a4.7,4.7,0,0,0,1.6-1.11,4.52,4.52,0,0,0,.91-2.9,7,7,0,0,0-.31-2.49c-.3-.65-.22-.73.51-.54,1.11.29,1.6-.46.73-1.1s-.84-1,.54-2.4l.94-1h-1.09c0,.67-1.16,1-2.64.63-.85-.22-1.21-.44-1.2-.63h-3l1.09.9c.89.73,1,1,.6,1.42s-.36.62.29,1.1.75.63.1,1-.95,1.75-.3,2.15c.22.14.4,0,.4-.39a1.05,1.05,0,0,1,1.81-.61,2.15,2.15,0,0,1,.59,1.48c0,1.14-1,3.32-1.6,3.32-.22,0-.4.27-.4.6S99.09,134.82,99.38,134.73Zm-13.92-3.3.55-.84a4.82,4.82,0,0,0,.63-2.42c0-1.5.88-2,1.3-.64.24.74,1.27,1.41,2.89,1.86.83.23.85.17.4-1a3.88,3.88,0,0,0-1.57-1.83c-1.57-.81-1.43-1.75.25-1.75a4.47,4.47,0,0,0,2.41-.84l.94-.73H89.11c0,.13-.27.28-1.14.53-1.24.36-1.67.73-2,1.65-.2.66-.46,1.46-.56,1.79ZM87.12,126a.57.57,0,0,1-.56-.54c0-.68,1.08-1.16,1.41-.62a.81.81,0,0,1,0,.77A.89.89,0,0,1,87.12,126Z" fill="#fff"/><g id="lys"><path id="lys_1" data-name="lys 1" d="M45.36,43.82a22,22,0,0,0-3.23-5c-1.75-1.81-3.87-3-4.42-2.61" fill="#fff" fill-rule="evenodd"/><path id="lys_2" data-name="lys 2" d="M51.23,35.62a5.72,5.72,0,0,0-3.14,1.55,6.54,6.54,0,0,0-1.43,3.77c0,.75-.53-.33-.88-.94s-.77-2.16-.89-1.29a6.55,6.55,0,0,0,0,2.29,13.83,13.83,0,0,0,1,3.47L47.53,46a8.49,8.49,0,0,0,1.28-2.5l0,3.74L50.52,49a8.87,8.87,0,0,1-.65-4.16c.13-1.51.92-3.43.82-4.17-.45-.16-1.16,1-2.08.75a6.83,6.83,0,0,1,.76-3.07c.47-.67,1.77-2.28,2.56-2.51A.85.85,0,0,0,51.23,35.62Z" fill="#fff" fill-rule="evenodd"/><path id="lys_3" data-name="lys 3" d="M34.85,33.45c3.85-2,7.86,3.32,7.86,3.32S43.28,33.08,44,33,46,36,46,36a8.35,8.35,0,0,1,6.29-3c4,0,4.62,3.65,2.34,3.83s-1-2.06-.9-1.46c0,.07-2.15-3.1-7.66,3.14-.81.92-1.58-3.38-2-2.43-.49,1.15-.09,2.5-.45,3.41.56.68-4.53-5.54-6.7-3.83" fill="#fff" fill-rule="evenodd"/><path id="lys_3-2" data-name="lys 3" d="M34.86,33.45c-2,3.85,3.32,7.86,3.32,7.86s-3.7.57-3.75,1.33,2.93,1.94,2.93,1.94a8.36,8.36,0,0,0-3,6.29c0,4,3.66,4.62,3.83,2.35s-2.06-1-1.46-.91c.07,0-3.1-2.15,3.14-7.66.92-.81-3.38-1.57-2.43-2,1.15-.48,2.5-.09,3.41-.44.68.55-5.53-4.54-3.83-6.71" fill="#fff" fill-rule="evenodd"/><path id="lys_1-2" data-name="lys 1" d="M45.38,43.79a22.21,22.21,0,0,1-5-3.24c-1.8-1.74-3-3.87-2.61-4.41" fill="#fff" fill-rule="evenodd"/><path id="lys_2-2" data-name="lys 2" d="M37.15,49.7a5.72,5.72,0,0,1,1.55-3.14,6.54,6.54,0,0,1,3.77-1.43c.75,0-.33-.53-.94-.88s-2.16-.77-1.29-.89a6.55,6.55,0,0,1,2.29,0,14,14,0,0,1,3.47,1L47.57,46a8.49,8.49,0,0,1-2.5,1.28l3.74,0L50.53,49a8.81,8.81,0,0,0-4.15-.65c-1.51.13-3.43.92-4.17.82-.16-.45,1-1.16.75-2.08a6.83,6.83,0,0,0-3.07.76c-.67.47-2.28,1.77-2.51,2.56A.85.85,0,0,1,37.15,49.7Z" fill="#fff" fill-rule="evenodd"/></g><g id="lys-2" data-name="lys"><path id="lys_1-3" data-name="lys 1" d="M126.88,43.82a22.21,22.21,0,0,1,3.24-5c1.74-1.81,3.87-3,4.41-2.61" fill="#fff" fill-rule="evenodd"/><path id="lys_2-3" data-name="lys 2" d="M121,35.62a5.69,5.69,0,0,1,3.14,1.55,6.56,6.56,0,0,1,1.44,3.77c0,.75.52-.33.87-.94s.77-2.16.89-1.29a6.32,6.32,0,0,1,0,2.29,13.43,13.43,0,0,1-1,3.47L124.71,46a8.12,8.12,0,0,1-1.27-2.5l0,3.74L121.72,49a8.87,8.87,0,0,0,.66-4.16c-.13-1.51-.92-3.43-.83-4.17.46-.16,1.16,1,2.09.75a7,7,0,0,0-.76-3.07c-.47-.67-1.78-2.28-2.57-2.51A.87.87,0,0,1,121,35.62Z" fill="#fff" fill-rule="evenodd"/><path id="lys_3-3" data-name="lys 3" d="M137.39,33.45c-3.85-2-7.85,3.32-7.85,3.32S129,33.08,128.21,33s-2,2.92-2,2.92a8.34,8.34,0,0,0-6.28-3c-4,0-4.63,3.65-2.35,3.83s1-2.06.91-1.46c0,.07,2.14-3.1,7.65,3.14.82.92,1.58-3.38,2-2.43.48,1.15.08,2.5.44,3.41-.56.68,4.54-5.54,6.71-3.83" fill="#fff" fill-rule="evenodd"/><path id="lys_3-4" data-name="lys 3" d="M137.39,33.45c2,3.85-3.32,7.86-3.32,7.86s3.7.57,3.74,1.33-2.92,1.94-2.92,1.94a8.37,8.37,0,0,1,3,6.29c0,4-3.65,4.62-3.83,2.35s2.06-1,1.46-.91c-.07,0,3.1-2.15-3.14-7.66-.92-.81,3.38-1.57,2.43-2-1.15-.48-2.5-.09-3.41-.44-.68.55,5.54-4.54,3.83-6.71" fill="#fff" fill-rule="evenodd"/><path id="lys_1-4" data-name="lys 1" d="M126.87,43.79a22,22,0,0,0,5-3.24c1.81-1.74,3-3.87,2.62-4.41" fill="#fff" fill-rule="evenodd"/><path id="lys_2-4" data-name="lys 2" d="M135.09,49.7a5.72,5.72,0,0,0-1.55-3.14,6.54,6.54,0,0,0-3.77-1.43c-.74,0,.34-.53.95-.88s2.16-.77,1.28-.89a6.49,6.49,0,0,0-2.28,0,13.83,13.83,0,0,0-3.47,1L124.67,46a8.49,8.49,0,0,0,2.5,1.28l-3.73,0L121.71,49a8.83,8.83,0,0,1,4.15-.65c1.52.13,3.43.92,4.17.82.16-.45-1-1.16-.75-2.08a6.9,6.9,0,0,1,3.08.76c.66.47,2.28,1.77,2.51,2.56A.85.85,0,0,0,135.09,49.7Z" fill="#fff" fill-rule="evenodd"/></g><g id="lys-3" data-name="lys"><path id="lys_1-5" data-name="lys 1" d="M45.36,203.15a22,22,0,0,1-3.23,5c-1.75,1.8-3.87,3-4.42,2.61" fill="#fff" fill-rule="evenodd"/><path id="lys_2-5" data-name="lys 2" d="M51.23,211.34a5.72,5.72,0,0,1-3.14-1.55A6.54,6.54,0,0,1,46.66,206c0-.75-.53.33-.88.95s-.77,2.15-.89,1.28a6.49,6.49,0,0,1,0-2.28,13.83,13.83,0,0,1,1-3.47l1.59-1.58a8.49,8.49,0,0,1,1.28,2.5l0-3.74L50.52,198a8.81,8.81,0,0,0-.65,4.15c.13,1.52.92,3.43.82,4.17-.45.16-1.16-1-2.08-.75a6.83,6.83,0,0,0,.76,3.07c.47.67,1.77,2.28,2.56,2.52A.88.88,0,0,1,51.23,211.34Z" fill="#fff" fill-rule="evenodd"/><path id="lys_3-5" data-name="lys 3" d="M34.85,213.51c3.85,2,7.86-3.32,7.86-3.32s.57,3.7,1.32,3.74S46,211,46,211a8.35,8.35,0,0,0,6.29,3c4,0,4.62-3.65,2.34-3.83s-1,2.06-.9,1.46c0-.07-2.15,3.1-7.66-3.14-.81-.92-1.58,3.38-2,2.43-.49-1.15-.09-2.5-.45-3.41.56-.68-4.53,5.54-6.7,3.83" fill="#fff" fill-rule="evenodd"/><path id="lys_3-6" data-name="lys 3" d="M34.86,213.51c-2-3.85,3.32-7.86,3.32-7.86s-3.7-.57-3.75-1.32,2.93-2,2.93-2a8.34,8.34,0,0,1-3-6.29c0-4,3.66-4.62,3.83-2.34s-2.06.95-1.46.9c.07,0-3.1,2.15,3.14,7.66.92.81-3.38,1.58-2.43,2,1.15.49,2.5.09,3.41.45.68-.56-5.53,4.53-3.83,6.7" fill="#fff" fill-rule="evenodd"/><path id="lys_1-6" data-name="lys 1" d="M45.38,203.17a22.21,22.21,0,0,0-5,3.24c-1.8,1.74-3,3.87-2.61,4.41" fill="#fff" fill-rule="evenodd"/><path id="lys_2-6" data-name="lys 2" d="M37.15,197.26a5.69,5.69,0,0,0,1.55,3.14,6.56,6.56,0,0,0,3.77,1.44c.75,0-.33.52-.94.87s-2.16.77-1.29.89a6.55,6.55,0,0,0,2.29,0,14,14,0,0,0,3.47-1L47.57,201a8.49,8.49,0,0,0-2.5-1.28l3.74,0L50.53,198a8.68,8.68,0,0,1-4.15.65c-1.51-.12-3.43-.92-4.17-.82-.16.46,1,1.16.75,2.08a6.7,6.7,0,0,1-3.07-.76c-.67-.46-2.28-1.77-2.51-2.56A.87.87,0,0,0,37.15,197.26Z" fill="#fff" fill-rule="evenodd"/></g><g id="lys-4" data-name="lys"><path id="lys_1-7" data-name="lys 1" d="M126.88,203.15a22.21,22.21,0,0,0,3.24,5c1.74,1.8,3.87,3,4.41,2.61" fill="#fff" fill-rule="evenodd"/><path id="lys_2-7" data-name="lys 2" d="M121,211.34a5.69,5.69,0,0,0,3.14-1.55,6.56,6.56,0,0,0,1.44-3.77c0-.75.52.33.87.95s.77,2.15.89,1.28a6.26,6.26,0,0,0,0-2.28,13.43,13.43,0,0,0-1-3.47l-1.59-1.58a8.12,8.12,0,0,0-1.27,2.5l0-3.74L121.72,198a8.8,8.8,0,0,1,.66,4.15c-.13,1.52-.92,3.43-.83,4.17.46.16,1.16-1,2.09-.75a7,7,0,0,1-.76,3.07c-.47.67-1.78,2.28-2.57,2.52A.9.9,0,0,0,121,211.34Z" fill="#fff" fill-rule="evenodd"/><path id="lys_3-7" data-name="lys 3" d="M137.39,213.51c-3.85,2-7.85-3.32-7.85-3.32s-.58,3.7-1.33,3.74-2-2.92-2-2.92a8.34,8.34,0,0,1-6.28,3c-4,0-4.63-3.65-2.35-3.83s1,2.06.91,1.46c0-.07,2.14,3.1,7.65-3.14.82-.92,1.58,3.38,2,2.43.48-1.15.08-2.5.44-3.41-.56-.68,4.54,5.54,6.71,3.83" fill="#fff" fill-rule="evenodd"/><path id="lys_3-8" data-name="lys 3" d="M137.39,213.51c2-3.85-3.32-7.86-3.32-7.86s3.7-.57,3.74-1.32-2.92-2-2.92-2a8.35,8.35,0,0,0,3-6.29c0-4-3.65-4.62-3.83-2.34s2.06.95,1.46.9c-.07,0,3.1,2.15-3.14,7.66-.92.81,3.38,1.58,2.43,2-1.15.49-2.5.09-3.41.45-.68-.56,5.54,4.53,3.83,6.7" fill="#fff" fill-rule="evenodd"/><path id="lys_1-8" data-name="lys 1" d="M126.87,203.17a22,22,0,0,1,5,3.24c1.81,1.74,3,3.87,2.62,4.41" fill="#fff" fill-rule="evenodd"/><path id="lys_2-8" data-name="lys 2" d="M135.09,197.26a5.69,5.69,0,0,1-1.55,3.14,6.56,6.56,0,0,1-3.77,1.44c-.74,0,.34.52.95.87s2.16.77,1.28.89a6.49,6.49,0,0,1-2.28,0,13.83,13.83,0,0,1-3.47-1L124.67,201a8.49,8.49,0,0,1,2.5-1.28l-3.73,0L121.71,198a8.71,8.71,0,0,0,4.15.65c1.52-.12,3.43-.92,4.17-.82.16.46-1,1.16-.75,2.08a6.77,6.77,0,0,0,3.08-.76c.66-.46,2.28-1.77,2.51-2.56A.86.86,0,0,1,135.09,197.26Z" fill="#fff" fill-rule="evenodd"/></g><g id="twist"><path d="M19.82,226a1.9,1.9,0,0,1-1.29-2.28,2.07,2.07,0,0,1,2.6-1.45,2.57,2.57,0,0,1,1.68,3.12,2.69,2.69,0,0,1-3.42,1.83,3.27,3.27,0,0,1-2.07-4,3.32,3.32,0,0,1,3.17-2.38" fill="none" stroke="#fff" stroke-linecap="round" stroke-linejoin="round" stroke-width="1.25"/><path d="M21,227.19a2,2,0,0,0,2.5,1.29,2.3,2.3,0,0,0,1.37-3,2.67,2.67,0,0,0-3.35-1.65,3,3,0,0,0-1.69,3.82,3.31,3.31,0,0,0,4.19,2,3.5,3.5,0,0,0,2.25-3.06" fill="none" stroke="#fff" stroke-linecap="round" stroke-linejoin="round" stroke-width="1.25"/></g><g id="twist-2" data-name="twist"><path d="M150,227.26a1.89,1.89,0,0,1-2.27,1.29,2.07,2.07,0,0,1-1.46-2.6,2.57,2.57,0,0,1,3.12-1.68,2.7,2.7,0,0,1,1.84,3.42,3.27,3.27,0,0,1-6.35-1.11" fill="none" stroke="#fff" stroke-linecap="round" stroke-linejoin="round" stroke-width="1.25"/><path d="M151.15,226.13a2,2,0,0,0,1.29-2.5,2.3,2.3,0,0,0-3-1.37,2.66,2.66,0,0,0-1.64,3.35,3,3,0,0,0,3.81,1.69,3.31,3.31,0,0,0,2-4.19,3.48,3.48,0,0,0-3.06-2.25" fill="none" stroke="#fff" stroke-linecap="round" stroke-linejoin="round" stroke-width="1.25"/></g><g id="twist-3" data-name="twist"><path d="M151.22,20.37a1.89,1.89,0,0,1,1.29,2.27,2.06,2.06,0,0,1-2.6,1.46A2.57,2.57,0,0,1,148.23,21a2.7,2.7,0,0,1,3.42-1.84,3.27,3.27,0,0,1-1.1,6.35" fill="none" stroke="#fff" stroke-linecap="round" stroke-linejoin="round" stroke-width="1.25"/><path d="M150.09,19.22a2,2,0,0,0-2.5-1.29,2.31,2.31,0,0,0-1.37,3,2.67,2.67,0,0,0,3.35,1.65,3,3,0,0,0,1.69-3.82,3.31,3.31,0,0,0-4.19-2,3.5,3.5,0,0,0-2.25,3.06" fill="none" stroke="#fff" stroke-linecap="round" stroke-linejoin="round" stroke-width="1.25"/></g><g id="twist-4" data-name="twist"><path d="M21,19.15a1.9,1.9,0,0,1,2.28-1.29,2.07,2.07,0,0,1,1.45,2.6,2.57,2.57,0,0,1-3.12,1.68,2.69,2.69,0,0,1-1.83-3.42,3.25,3.25,0,0,1,4-2.07,3.29,3.29,0,0,1,2.38,3.17" fill="none" stroke="#fff" stroke-linecap="round" stroke-linejoin="round" stroke-width="1.25"/><path d="M19.89,20.28a2,2,0,0,0-1.29,2.5,2.3,2.3,0,0,0,3,1.37,2.67,2.67,0,0,0,1.65-3.35,3,3,0,0,0-3.82-1.69,3.31,3.31,0,0,0-2,4.19,3.5,3.5,0,0,0,3.06,2.25" fill="none" stroke="#fff" stroke-linecap="round" stroke-linejoin="round" stroke-width="1.25"/></g><g id="g_lace" data-name="g lace"><g id="lace"><path d="M20.91,27.52c-.65.05-2.12.9.23-.32.48-.25-.87.62-1.17,1.05-.89,1.64-.46,3.49.15,5.16,1.29,3.23,2.77,6.39,4,9.64.75,1.7.1,3.25-1,4.67a18.59,18.59,0,0,1-4.2,3.48l-1.54.58a19.31,19.31,0,0,0,4.23-3.44c1.09-1.36,1.75-2.87,1.08-4.53-1.16-3.28-2.7-6.43-4-9.66-.63-1.68-1.13-3.57-.26-5.26a5.67,5.67,0,0,1,3.86-2.33Z" fill="none" stroke="#fff" stroke-miterlimit="40" stroke-width="0.32"/><path d="M20.39,56.17c.65-.05,2.12-.9-.23.32-.48.25.87-.62,1.17-1.05.89-1.64.46-3.49-.15-5.16-1.29-3.23-2.77-6.39-4-9.64-.75-1.7-.1-3.25,1-4.67a18.59,18.59,0,0,1,4.2-3.48l1.55-.58a18.86,18.86,0,0,0-4.24,3.44c-1.09,1.36-1.74,2.87-1.08,4.53,1.16,3.28,2.7,6.43,4,9.66.64,1.68,1.14,3.57.26,5.26A5.67,5.67,0,0,1,19,57.13Z" fill="none" stroke="#fff" stroke-miterlimit="40" stroke-width="0.32"/></g><g id="lace-2" data-name="lace"><path d="M20.91,54.69c-.65.05-2.12.9.23-.32.48-.25-.87.62-1.17,1.05-.89,1.64-.46,3.49.15,5.16,1.29,3.23,2.77,6.39,4,9.64.75,1.7.1,3.25-1,4.67a18.59,18.59,0,0,1-4.2,3.48L17.39,79a19,19,0,0,0,4.23-3.44c1.09-1.36,1.75-2.87,1.08-4.53-1.16-3.28-2.7-6.43-4-9.66-.63-1.68-1.13-3.57-.26-5.26a5.67,5.67,0,0,1,3.86-2.33Z" fill="none" stroke="#fff" stroke-miterlimit="40" stroke-width="0.32"/><path d="M20.39,83.34c.65,0,2.12-.9-.23.32-.48.25.87-.62,1.17-1,.89-1.64.46-3.49-.15-5.16-1.29-3.23-2.77-6.39-4-9.64-.75-1.7-.1-3.25,1-4.67a18.86,18.86,0,0,1,4.2-3.48l1.55-.58a19.14,19.14,0,0,0-4.24,3.44c-1.09,1.36-1.74,2.87-1.08,4.53,1.16,3.28,2.7,6.43,4,9.66.64,1.68,1.14,3.57.26,5.26A5.67,5.67,0,0,1,19,84.3Z" fill="none" stroke="#fff" stroke-miterlimit="40" stroke-width="0.32"/></g><g id="lace-3" data-name="lace"><path d="M20.91,81.87c-.65,0-2.12.9.23-.32.48-.25-.87.62-1.17,1-.89,1.65-.46,3.49.15,5.16,1.29,3.23,2.77,6.39,4,9.64.75,1.7.1,3.26-1,4.67a18.9,18.9,0,0,1-4.2,3.49l-1.54.57a19,19,0,0,0,4.23-3.44c1.09-1.36,1.75-2.87,1.08-4.53-1.16-3.28-2.7-6.43-4-9.66-.63-1.68-1.13-3.57-.26-5.26a5.67,5.67,0,0,1,3.86-2.33Z" fill="none" stroke="#fff" stroke-miterlimit="40" stroke-width="0.32"/><path d="M20.39,110.52c.65,0,2.12-.9-.23.32-.48.25.87-.62,1.17-1,.89-1.64.46-3.48-.15-5.16-1.29-3.22-2.77-6.39-4-9.63-.75-1.7-.1-3.26,1-4.68a18.86,18.86,0,0,1,4.2-3.48l1.55-.58a18.9,18.9,0,0,0-4.24,3.45c-1.09,1.35-1.74,2.86-1.08,4.53,1.16,3.27,2.7,6.42,4,9.65.64,1.68,1.14,3.57.26,5.26A5.67,5.67,0,0,1,19,111.48Z" fill="none" stroke="#fff" stroke-miterlimit="40" stroke-width="0.32"/></g><g id="lace-4" data-name="lace"><path d="M20.91,109.05c-.65,0-2.12.9.23-.32.48-.25-.87.63-1.17,1-.89,1.65-.46,3.49.15,5.16,1.29,3.23,2.77,6.39,4,9.64.75,1.7.1,3.26-1,4.67a18.9,18.9,0,0,1-4.2,3.49l-1.54.58a19.07,19.07,0,0,0,4.23-3.45c1.09-1.36,1.75-2.87,1.08-4.53-1.16-3.28-2.7-6.43-4-9.66-.63-1.68-1.13-3.57-.26-5.26a5.67,5.67,0,0,1,3.86-2.33Z" fill="none" stroke="#fff" stroke-miterlimit="40" stroke-width="0.32"/><path d="M20.39,137.7c.65,0,2.12-.9-.23.33-.48.24.87-.63,1.17-1.06.89-1.64.46-3.48-.15-5.16-1.29-3.22-2.77-6.39-4-9.63-.75-1.7-.1-3.26,1-4.68a19.13,19.13,0,0,1,4.2-3.48l1.55-.58a18.9,18.9,0,0,0-4.24,3.45c-1.09,1.35-1.74,2.86-1.08,4.53,1.16,3.27,2.7,6.43,4,9.65.64,1.69,1.14,3.57.26,5.27A5.69,5.69,0,0,1,19,138.66Z" fill="none" stroke="#fff" stroke-miterlimit="40" stroke-width="0.32"/></g><g id="lace-5" data-name="lace"><path d="M20.91,136.22c-.65.05-2.12.91.23-.32.48-.25-.87.63-1.17,1-.89,1.65-.46,3.49.15,5.16,1.29,3.23,2.77,6.39,4,9.64.75,1.7.1,3.26-1,4.67a18.9,18.9,0,0,1-4.2,3.49l-1.54.58A19.07,19.07,0,0,0,21.62,157c1.09-1.36,1.75-2.87,1.08-4.53-1.16-3.28-2.7-6.43-4-9.66-.63-1.68-1.13-3.57-.26-5.26a5.7,5.7,0,0,1,3.86-2.33Z" fill="none" stroke="#fff" stroke-miterlimit="40" stroke-width="0.32"/><path d="M20.39,164.87c.65,0,2.12-.9-.23.33-.48.24.87-.63,1.17-1.06.89-1.64.46-3.48-.15-5.15-1.29-3.23-2.77-6.4-4-9.64-.75-1.7-.1-3.26,1-4.68a19.13,19.13,0,0,1,4.2-3.48l1.55-.58a18.9,18.9,0,0,0-4.24,3.45c-1.09,1.36-1.74,2.87-1.08,4.53,1.16,3.27,2.7,6.43,4,9.66.64,1.68,1.14,3.57.26,5.26A5.69,5.69,0,0,1,19,165.83Z" fill="none" stroke="#fff" stroke-miterlimit="40" stroke-width="0.32"/></g><g id="lace-6" data-name="lace"><path d="M20.91,163.4c-.65,0-2.12.91.23-.32.48-.25-.87.63-1.17,1.06-.89,1.64-.46,3.48.15,5.15,1.29,3.23,2.77,6.39,4,9.64.75,1.7.1,3.26-1,4.67a18.9,18.9,0,0,1-4.2,3.49l-1.54.58a19.07,19.07,0,0,0,4.23-3.45c1.09-1.36,1.75-2.87,1.08-4.53-1.16-3.28-2.7-6.43-4-9.66-.63-1.68-1.13-3.57-.26-5.26a5.7,5.7,0,0,1,3.86-2.33Z" fill="none" stroke="#fff" stroke-miterlimit="40" stroke-width="0.32"/><path d="M20.39,192.05c.65,0,2.12-.9-.23.33-.48.24.87-.63,1.17-1.06.89-1.64.46-3.48-.15-5.15-1.29-3.23-2.77-6.39-4-9.64-.75-1.7-.1-3.26,1-4.67a18.9,18.9,0,0,1,4.2-3.49l1.55-.58a18.9,18.9,0,0,0-4.24,3.45c-1.09,1.36-1.74,2.87-1.08,4.53,1.16,3.27,2.7,6.43,4,9.66.64,1.68,1.14,3.57.26,5.26A5.69,5.69,0,0,1,19,193Z" fill="none" stroke="#fff" stroke-miterlimit="40" stroke-width="0.32"/></g><g id="lace-7" data-name="lace"><path d="M20.91,190.58c-.65,0-2.12.91.23-.32.48-.25-.87.63-1.17,1.06-.89,1.64-.46,3.48.15,5.15,1.29,3.23,2.77,6.39,4,9.64.75,1.7.1,3.26-1,4.67a18.9,18.9,0,0,1-4.2,3.49l-1.54.58a19.07,19.07,0,0,0,4.23-3.45c1.09-1.36,1.75-2.87,1.08-4.53-1.16-3.28-2.7-6.43-4-9.66-.63-1.68-1.13-3.57-.26-5.26a5.69,5.69,0,0,1,3.86-2.32Z" fill="none" stroke="#fff" stroke-miterlimit="40" stroke-width="0.32"/><path d="M20.39,219.24c.65-.05,2.12-.91-.23.32-.48.25.87-.63,1.17-1.06.89-1.64.46-3.48-.15-5.15-1.29-3.23-2.77-6.39-4-9.64-.75-1.7-.1-3.26,1-4.67a18.9,18.9,0,0,1,4.2-3.49l1.55-.58a18.9,18.9,0,0,0-4.24,3.45c-1.09,1.36-1.74,2.87-1.08,4.53,1.16,3.28,2.7,6.43,4,9.66.64,1.68,1.14,3.57.26,5.26A5.69,5.69,0,0,1,19,220.19Z" fill="none" stroke="#fff" stroke-miterlimit="40" stroke-width="0.32"/></g></g><g id="g_lace-2" data-name="g lace"><g id="lace-8" data-name="lace"><path d="M150.45,27.21c-.65,0-2.12.9.23-.33.48-.24-.87.63-1.17,1.06-.89,1.64-.46,3.48.15,5.15,1.29,3.23,2.77,6.4,4,9.64.75,1.7.1,3.26-1,4.68a19.13,19.13,0,0,1-4.2,3.48l-1.55.58A18.9,18.9,0,0,0,151.16,48c1.09-1.36,1.75-2.87,1.08-4.53-1.16-3.27-2.7-6.43-4-9.66-.64-1.68-1.14-3.57-.26-5.26a5.69,5.69,0,0,1,3.86-2.32Z" fill="none" stroke="#fff" stroke-miterlimit="40" stroke-width="0.32"/><path d="M149.93,55.86c.65,0,2.12-.91-.23.32-.48.25.87-.63,1.17-1,.89-1.65.46-3.49-.15-5.16-1.29-3.23-2.77-6.39-4-9.64-.74-1.7-.1-3.26,1-4.67a18.9,18.9,0,0,1,4.2-3.49l1.55-.58A18.9,18.9,0,0,0,149.22,35c-1.09,1.36-1.75,2.87-1.08,4.53,1.16,3.28,2.7,6.43,4,9.66.64,1.68,1.14,3.57.26,5.26a5.7,5.7,0,0,1-3.86,2.33Z" fill="none" stroke="#fff" stroke-miterlimit="40" stroke-width="0.32"/></g><g id="lace-9" data-name="lace"><path d="M150.45,54.38c-.65,0-2.12.9.23-.33.48-.24-.87.63-1.17,1.06-.89,1.64-.46,3.48.15,5.16,1.29,3.22,2.77,6.39,4,9.63.75,1.7.1,3.26-1,4.68a19.13,19.13,0,0,1-4.2,3.48l-1.55.58a18.9,18.9,0,0,0,4.24-3.45c1.09-1.35,1.75-2.86,1.08-4.53-1.16-3.27-2.7-6.43-4-9.65-.64-1.69-1.14-3.57-.26-5.27a5.69,5.69,0,0,1,3.86-2.32Z" fill="none" stroke="#fff" stroke-miterlimit="40" stroke-width="0.32"/><path d="M149.93,83c.65,0,2.12-.9-.23.32-.48.25.87-.63,1.17-1,.89-1.65.46-3.49-.15-5.16-1.29-3.23-2.77-6.39-4-9.64-.74-1.7-.1-3.26,1-4.67a18.9,18.9,0,0,1,4.2-3.49l1.55-.58a18.9,18.9,0,0,0-4.24,3.45c-1.09,1.36-1.75,2.87-1.08,4.53,1.16,3.28,2.7,6.43,4,9.66.64,1.68,1.14,3.57.26,5.26A5.67,5.67,0,0,1,148.54,84Z" fill="none" stroke="#fff" stroke-miterlimit="40" stroke-width="0.32"/></g><g id="lace-10" data-name="lace"><path d="M150.45,81.56c-.65,0-2.12.9.23-.32.48-.25-.87.62-1.17,1.05-.89,1.64-.46,3.48.15,5.16,1.29,3.22,2.77,6.39,4,9.63.75,1.7.1,3.26-1,4.68a18.86,18.86,0,0,1-4.2,3.48l-1.55.58a18.9,18.9,0,0,0,4.24-3.45c1.09-1.35,1.75-2.86,1.08-4.53-1.16-3.27-2.7-6.42-4-9.65-.64-1.68-1.14-3.57-.26-5.26a5.67,5.67,0,0,1,3.86-2.33Z" fill="none" stroke="#fff" stroke-miterlimit="40" stroke-width="0.32"/><path d="M149.93,110.21c.65,0,2.12-.9-.23.32-.48.25.87-.62,1.17-1,.89-1.65.46-3.49-.15-5.16-1.29-3.23-2.77-6.39-4-9.64-.74-1.7-.1-3.26,1-4.67a18.9,18.9,0,0,1,4.2-3.49l1.55-.57a18.86,18.86,0,0,0-4.24,3.44c-1.09,1.36-1.75,2.87-1.08,4.53,1.16,3.28,2.7,6.43,4,9.66.64,1.68,1.14,3.57.26,5.26a5.67,5.67,0,0,1-3.86,2.33Z" fill="none" stroke="#fff" stroke-miterlimit="40" stroke-width="0.32"/></g><g id="lace-11" data-name="lace"><path d="M150.45,108.74c-.65.05-2.12.9.23-.32.48-.25-.87.62-1.17,1-.89,1.64-.46,3.49.15,5.16,1.29,3.23,2.77,6.39,4,9.64.75,1.7.1,3.25-1,4.67a18.86,18.86,0,0,1-4.2,3.48l-1.55.58a19.14,19.14,0,0,0,4.24-3.44c1.09-1.36,1.75-2.87,1.08-4.53-1.16-3.28-2.7-6.43-4-9.66-.64-1.68-1.14-3.57-.26-5.26a5.67,5.67,0,0,1,3.86-2.33Z" fill="none" stroke="#fff" stroke-miterlimit="40" stroke-width="0.32"/><path d="M149.93,137.39c.65,0,2.12-.9-.23.32-.48.25.87-.62,1.17-1.05.89-1.64.46-3.49-.15-5.16-1.29-3.23-2.77-6.39-4-9.64-.74-1.7-.1-3.25,1-4.67a18.59,18.59,0,0,1,4.2-3.48l1.55-.58a18.86,18.86,0,0,0-4.24,3.44c-1.09,1.36-1.75,2.87-1.08,4.53,1.16,3.28,2.7,6.43,4,9.66.64,1.68,1.14,3.57.26,5.26a5.67,5.67,0,0,1-3.86,2.33Z" fill="none" stroke="#fff" stroke-miterlimit="40" stroke-width="0.32"/></g><g id="lace-12" data-name="lace"><path d="M150.45,135.91c-.65.05-2.12.9.23-.32.48-.25-.87.62-1.17,1-.89,1.64-.46,3.49.15,5.16,1.29,3.23,2.77,6.39,4,9.64.75,1.7.1,3.25-1,4.67a18.59,18.59,0,0,1-4.2,3.48l-1.55.58a18.86,18.86,0,0,0,4.24-3.44c1.09-1.36,1.75-2.87,1.08-4.53-1.16-3.28-2.7-6.43-4-9.66-.64-1.68-1.14-3.57-.26-5.26a5.67,5.67,0,0,1,3.86-2.33Z" fill="none" stroke="#fff" stroke-miterlimit="40" stroke-width="0.32"/><path d="M149.93,164.56c.65-.05,2.12-.9-.23.32-.48.25.87-.62,1.17-1,.89-1.64.46-3.49-.15-5.16-1.29-3.23-2.77-6.39-4-9.64-.74-1.7-.1-3.25,1-4.67a18.59,18.59,0,0,1,4.2-3.48l1.55-.58a19.14,19.14,0,0,0-4.24,3.44c-1.09,1.36-1.75,2.87-1.08,4.53,1.16,3.28,2.7,6.43,4,9.66.64,1.68,1.14,3.57.26,5.26a5.67,5.67,0,0,1-3.86,2.33Z" fill="none" stroke="#fff" stroke-miterlimit="40" stroke-width="0.32"/></g><g id="lace-13" data-name="lace"><path d="M150.45,163.09c-.65,0-2.12.9.23-.32.48-.25-.87.62-1.17,1-.89,1.65-.46,3.49.15,5.16,1.29,3.23,2.77,6.39,4,9.64.75,1.7.1,3.25-1,4.67a18.9,18.9,0,0,1-4.2,3.49l-1.55.57a18.86,18.86,0,0,0,4.24-3.44c1.09-1.36,1.75-2.87,1.08-4.53-1.16-3.28-2.7-6.43-4-9.66-.64-1.68-1.14-3.57-.26-5.26a5.67,5.67,0,0,1,3.86-2.33Z" fill="none" stroke="#fff" stroke-miterlimit="40" stroke-width="0.32"/><path d="M149.93,191.74c.65-.05,2.12-.9-.23.32-.48.25.87-.62,1.17-1.05.89-1.64.46-3.48-.15-5.16-1.29-3.22-2.77-6.39-4-9.63-.74-1.7-.1-3.26,1-4.68a18.86,18.86,0,0,1,4.2-3.48l1.55-.58a18.9,18.9,0,0,0-4.24,3.45c-1.09,1.35-1.75,2.86-1.08,4.53,1.16,3.27,2.7,6.42,4,9.65.64,1.68,1.14,3.57.26,5.26a5.67,5.67,0,0,1-3.86,2.33Z" fill="none" stroke="#fff" stroke-miterlimit="40" stroke-width="0.32"/></g><g id="lace-14" data-name="lace"><path d="M150.45,190.27c-.65,0-2.12.9.23-.32.48-.25-.87.63-1.17,1.05-.89,1.65-.46,3.49.15,5.16,1.29,3.23,2.77,6.39,4,9.64.75,1.7.1,3.26-1,4.67a18.9,18.9,0,0,1-4.2,3.49l-1.55.58a18.9,18.9,0,0,0,4.24-3.45c1.09-1.36,1.75-2.87,1.08-4.53-1.16-3.28-2.7-6.43-4-9.66-.64-1.68-1.14-3.57-.26-5.26a5.67,5.67,0,0,1,3.86-2.33Z" fill="none" stroke="#fff" stroke-miterlimit="40" stroke-width="0.32"/><path d="M149.93,218.92c.65,0,2.12-.9-.23.33-.48.24.87-.63,1.17-1.06.89-1.64.46-3.48-.15-5.16-1.29-3.22-2.77-6.39-4-9.63-.74-1.7-.1-3.26,1-4.68a19.13,19.13,0,0,1,4.2-3.48l1.55-.58a18.9,18.9,0,0,0-4.24,3.45c-1.09,1.35-1.75,2.86-1.08,4.53,1.16,3.27,2.7,6.43,4,9.65.64,1.68,1.14,3.57.26,5.27a5.69,5.69,0,0,1-3.86,2.32Z" fill="none" stroke="#fff" stroke-miterlimit="40" stroke-width="0.32"/></g></g><g id="g_lace2" data-name="g lace2"><g id="lace-15" data-name="lace"><path d="M30.37,19.41c.05.65.9,2.12-.32-.23-.25-.48.62.87,1.05,1.17,1.64.89,3.49.46,5.16-.15,3.23-1.29,6.39-2.77,9.64-4,1.7-.75,3.25-.1,4.67,1a18.59,18.59,0,0,1,3.48,4.2l.58,1.55a19.14,19.14,0,0,0-3.44-4.24c-1.36-1.09-2.87-1.75-4.53-1.08-3.28,1.16-6.43,2.7-9.66,4-1.68.64-3.57,1.14-5.26.26A5.67,5.67,0,0,1,29.41,18Z" fill="none" stroke="#fff" stroke-miterlimit="40" stroke-width="0.32"/><path d="M59,19.93c-.05-.65-.9-2.12.32.23.25.48-.62-.87-1.05-1.17-1.64-.89-3.49-.46-5.16.15-3.23,1.29-6.39,2.77-9.64,4-1.7.75-3.25.1-4.67-1A18.59,18.59,0,0,1,35.34,18l-.58-1.55a18.86,18.86,0,0,0,3.44,4.24c1.36,1.09,2.87,1.75,4.53,1.08,3.28-1.16,6.43-2.7,9.66-4,1.68-.64,3.57-1.14,5.26-.26A5.67,5.67,0,0,1,60,21.32Z" fill="none" stroke="#fff" stroke-miterlimit="40" stroke-width="0.32"/></g><g id="lace-16" data-name="lace"><path d="M57.55,19.41c.05.65.9,2.12-.32-.23-.25-.48.62.87,1.05,1.17,1.64.89,3.49.46,5.16-.15,3.23-1.29,6.39-2.77,9.64-4,1.7-.75,3.25-.1,4.67,1a18.59,18.59,0,0,1,3.48,4.2l.58,1.55a18.86,18.86,0,0,0-3.44-4.24C77,17.61,75.5,17,73.84,17.62c-3.28,1.16-6.43,2.7-9.66,4-1.68.64-3.57,1.14-5.26.26A5.67,5.67,0,0,1,56.59,18Z" fill="none" stroke="#fff" stroke-miterlimit="40" stroke-width="0.32"/><path d="M86.2,19.93c0-.65-.9-2.12.32.23.25.48-.62-.87-1-1.17-1.64-.89-3.49-.46-5.16.15-3.23,1.29-6.39,2.77-9.64,4-1.7.75-3.25.1-4.67-1A18.59,18.59,0,0,1,62.52,18l-.58-1.55a19.14,19.14,0,0,0,3.44,4.24c1.36,1.09,2.87,1.75,4.53,1.08,3.28-1.16,6.43-2.7,9.66-4,1.68-.64,3.57-1.14,5.26-.26a5.67,5.67,0,0,1,2.33,3.86Z" fill="none" stroke="#fff" stroke-miterlimit="40" stroke-width="0.32"/></g><g id="lace-17" data-name="lace"><path d="M84.73,19.41c0,.65.9,2.12-.32-.23-.25-.48.62.87,1,1.17,1.64.89,3.49.46,5.16-.15,3.23-1.29,6.39-2.77,9.64-4,1.7-.75,3.25-.1,4.67,1a18.9,18.9,0,0,1,3.49,4.2l.57,1.55a18.86,18.86,0,0,0-3.44-4.24c-1.36-1.09-2.87-1.75-4.53-1.08-3.28,1.16-6.43,2.7-9.66,4-1.68.64-3.57,1.14-5.26.26A5.67,5.67,0,0,1,83.77,18Z" fill="none" stroke="#fff" stroke-miterlimit="40" stroke-width="0.32"/><path d="M113.38,19.93c0-.65-.9-2.12.32.23.25.48-.62-.87-1-1.17-1.64-.89-3.48-.46-5.16.15-3.22,1.29-6.39,2.77-9.64,4-1.69.75-3.25.1-4.67-1A18.86,18.86,0,0,1,89.7,18l-.58-1.55a18.9,18.9,0,0,0,3.45,4.24c1.35,1.09,2.86,1.75,4.53,1.08,3.27-1.16,6.42-2.7,9.65-4,1.68-.64,3.57-1.14,5.26-.26a5.67,5.67,0,0,1,2.33,3.86Z" fill="none" stroke="#fff" stroke-miterlimit="40" stroke-width="0.32"/></g><g id="lace-18" data-name="lace"><path d="M111.9,19.41c0,.65.9,2.12-.32-.23-.25-.48.63.87,1,1.17,1.65.89,3.49.46,5.16-.15,3.23-1.29,6.39-2.77,9.64-4,1.7-.75,3.26-.1,4.67,1a18.9,18.9,0,0,1,3.49,4.2l.58,1.55a18.9,18.9,0,0,0-3.45-4.24c-1.36-1.09-2.87-1.75-4.53-1.08-3.28,1.16-6.43,2.7-9.66,4-1.68.64-3.57,1.14-5.26.26A5.67,5.67,0,0,1,110.94,18Z" fill="none" stroke="#fff" stroke-miterlimit="40" stroke-width="0.32"/><path d="M140.55,19.93c0-.65-.9-2.12.33.23.24.48-.63-.87-1.06-1.17-1.64-.89-3.48-.46-5.16.15-3.22,1.29-6.39,2.77-9.63,4-1.7.75-3.26.1-4.68-1a19.13,19.13,0,0,1-3.48-4.2l-.58-1.55a18.9,18.9,0,0,0,3.45,4.24c1.35,1.09,2.86,1.75,4.53,1.08,3.27-1.16,6.43-2.7,9.65-4,1.69-.64,3.57-1.14,5.27-.26a5.69,5.69,0,0,1,2.32,3.86Z" fill="none" stroke="#fff" stroke-miterlimit="40" stroke-width="0.32"/></g></g><g id="g_lace2-2" data-name="g lace2"><g id="lace-19" data-name="lace"><path d="M30.37,226.52c.05.65.9,2.12-.32-.23-.25-.48.62.87,1.05,1.17,1.64.89,3.49.46,5.16-.15,3.23-1.29,6.39-2.77,9.64-4,1.7-.75,3.25-.1,4.67,1a18.59,18.59,0,0,1,3.48,4.2l.58,1.55a19.14,19.14,0,0,0-3.44-4.24c-1.36-1.09-2.87-1.74-4.53-1.08-3.28,1.16-6.43,2.7-9.66,4-1.68.64-3.57,1.14-5.26.26a5.67,5.67,0,0,1-2.33-3.86Z" fill="none" stroke="#fff" stroke-miterlimit="40" stroke-width="0.32"/><path d="M59,227c-.05-.65-.9-2.12.32.23.25.48-.62-.87-1.05-1.17-1.64-.89-3.49-.46-5.16.15-3.23,1.29-6.39,2.77-9.64,4-1.7.75-3.25.1-4.67-1a18.59,18.59,0,0,1-3.48-4.2l-.58-1.54a19,19,0,0,0,3.44,4.23c1.36,1.09,2.87,1.75,4.53,1.08,3.28-1.16,6.43-2.7,9.66-4,1.68-.64,3.57-1.13,5.26-.26A5.67,5.67,0,0,1,60,228.43Z" fill="none" stroke="#fff" stroke-miterlimit="40" stroke-width="0.32"/></g><g id="lace-20" data-name="lace"><path d="M57.55,226.52c.05.65.9,2.12-.32-.23-.25-.48.62.87,1.05,1.17,1.64.89,3.49.46,5.16-.15,3.23-1.29,6.39-2.77,9.64-4,1.7-.75,3.25-.1,4.67,1a18.59,18.59,0,0,1,3.48,4.2l.58,1.55a18.86,18.86,0,0,0-3.44-4.24c-1.36-1.09-2.87-1.74-4.53-1.08-3.28,1.16-6.43,2.7-9.66,4-1.68.64-3.57,1.14-5.26.26a5.67,5.67,0,0,1-2.33-3.86Z" fill="none" stroke="#fff" stroke-miterlimit="40" stroke-width="0.32"/><path d="M86.2,227c0-.65-.9-2.12.32.23.25.48-.62-.87-1-1.17-1.64-.89-3.49-.46-5.16.15-3.23,1.29-6.39,2.77-9.64,4-1.7.75-3.25.1-4.67-1a18.59,18.59,0,0,1-3.48-4.2l-.58-1.54a19.31,19.31,0,0,0,3.44,4.23c1.36,1.09,2.87,1.75,4.53,1.08,3.28-1.16,6.43-2.7,9.66-4,1.68-.64,3.57-1.13,5.26-.26a5.67,5.67,0,0,1,2.33,3.86Z" fill="none" stroke="#fff" stroke-miterlimit="40" stroke-width="0.32"/></g><g id="lace-21" data-name="lace"><path d="M84.73,226.52c0,.65.9,2.12-.32-.23-.25-.48.62.87,1,1.17,1.64.89,3.49.46,5.16-.15,3.23-1.29,6.39-2.77,9.64-4,1.7-.75,3.25-.1,4.67,1a18.9,18.9,0,0,1,3.49,4.2l.57,1.55a18.86,18.86,0,0,0-3.44-4.24c-1.36-1.09-2.87-1.74-4.53-1.08-3.28,1.16-6.43,2.7-9.66,4-1.68.64-3.57,1.14-5.26.26a5.67,5.67,0,0,1-2.33-3.86Z" fill="none" stroke="#fff" stroke-miterlimit="40" stroke-width="0.32"/><path d="M113.38,227c0-.65-.9-2.12.32.23.25.48-.62-.87-1-1.17-1.64-.89-3.48-.46-5.16.15-3.22,1.29-6.39,2.77-9.64,4-1.69.75-3.25.1-4.67-1a18.86,18.86,0,0,1-3.48-4.2l-.58-1.54a19.07,19.07,0,0,0,3.45,4.23c1.35,1.09,2.86,1.75,4.53,1.08,3.27-1.16,6.42-2.7,9.65-4,1.68-.64,3.57-1.13,5.26-.26a5.67,5.67,0,0,1,2.33,3.86Z" fill="none" stroke="#fff" stroke-miterlimit="40" stroke-width="0.32"/></g><g id="lace-22" data-name="lace"><path d="M111.9,226.52c0,.65.9,2.12-.32-.23-.25-.48.63.87,1,1.17,1.65.89,3.49.46,5.16-.15,3.23-1.29,6.39-2.77,9.64-4,1.7-.75,3.26-.1,4.67,1a18.9,18.9,0,0,1,3.49,4.2l.58,1.55a18.9,18.9,0,0,0-3.45-4.24c-1.36-1.09-2.87-1.74-4.53-1.08-3.28,1.16-6.43,2.7-9.66,4-1.68.64-3.57,1.14-5.26.26a5.67,5.67,0,0,1-2.33-3.86Z" fill="none" stroke="#fff" stroke-miterlimit="40" stroke-width="0.32"/><path d="M140.55,227c0-.65-.9-2.12.33.23.24.48-.63-.87-1.06-1.17-1.64-.89-3.48-.46-5.16.15-3.22,1.29-6.39,2.77-9.63,4-1.7.75-3.26.1-4.68-1a19.13,19.13,0,0,1-3.48-4.2l-.58-1.54a19.07,19.07,0,0,0,3.45,4.23c1.35,1.09,2.86,1.75,4.53,1.08,3.27-1.16,6.43-2.7,9.65-4,1.69-.64,3.57-1.13,5.27-.26a5.69,5.69,0,0,1,2.32,3.86Z" fill="none" stroke="#fff" stroke-miterlimit="40" stroke-width="0.32"/></g></g></g></svg>