<svg xmlns="http://www.w3.org/2000/svg" viewBox="0 0 36.99 38.1"><g id="Layer_2" data-name="Layer 2"><g id="Layer_1-2" data-name="Layer 1"><g id="club"><path d="M10.46,7.87a8,8,0,0,0,8.11,7.87,8,8,0,0,0,8.11-7.87A8,8,0,0,0,18.57,0,8,8,0,0,0,10.46,7.87Z" fill="#010101"/><path d="M0,22.77a8,8,0,0,0,8.11,7.87,8,8,0,0,0,8.11-7.87A8,8,0,0,0,8.11,14.9,8,8,0,0,0,0,22.77Z" fill="#010101"/><path d="M20.78,22.82a7.67,7.67,0,0,0,1.32,4.31,8.16,8.16,0,0,0,6.79,3.55A8,8,0,0,0,37,22.82a8.11,8.11,0,0,0-16.21,0Z" fill="#010101"/><path d="M9,38.1c4,0,6.12-3.26,7.23-6.53a25.5,25.5,0,0,0,1.2-6.52h2.06s.38,13,8.4,13.05Z" fill="#010101"/><path d="M24.06,13.65c-4.56,4.56-4.56,11.4-4.56,11.4l-2,0s0-7-4.44-11.42" fill="#010101"/><path d="M23.15,28.29c-4.56-4.56-11.39-4.56-11.39-4.56v-2s7,0,11.42-4.44" fill="#010101"/><path d="M14,28.31c4.56-4.56,11.4-4.56,11.4-4.56v-2s-7,0-11.42-4.44" fill="#010101"/></g></g></g></svg>