<svg xmlns="http://www.w3.org/2000/svg" viewBox="0 0 36.85 38.1"><g id="Layer_2" data-name="Layer 2"><g id="Layer_2-2" data-name="Layer 2"><g id="diamond"><path d="M18.43,19.05H36.85C34.75,19,33,17.6,31.28,16.48a48.9,48.9,0,0,1-10.14-10C19.83,4.58,18.46,2.41,18.43,0M36.85,19.05c-2.66.08-4.94,1.78-7,3.34a50.75,50.75,0,0,0-9.31,10.47c-1,1.61-2.09,3.31-2.14,5.24v-19m0,19.05c-.1-2.84-1.82-5.29-3.45-7.49A50.32,50.32,0,0,0,4.83,21.1c-1.47-.91-3-2-4.83-2.05H18.43M0,19.05c2.66-.09,4.94-1.78,7-3.34A51,51,0,0,0,16.28,5.24c1-1.61,2.09-3.31,2.15-5.24V19.05" fill="#e42226"/></g></g></g></svg>